<?xml version="1.0" standalone="no"?>
<!DOCTYPE svg PUBLIC "-//W3C//DTD SVG 20010904//EN"
 "http://www.w3.org/TR/2001/REC-SVG-20010904/DTD/svg10.dtd">
<svg version="1.0" xmlns="http://www.w3.org/2000/svg"
 width="404.000000pt" height="404.000000pt" viewBox="0 0 404.000000 404.000000"
 preserveAspectRatio="xMidYMid meet">
<metadata>
Created by potrace 1.11, written by Peter Selinger 2001-2013
</metadata>
<g transform="translate(0.000000,404.000000) scale(0.100000,-0.100000)"
fill="#000000" stroke="none">
<path d="M725 2920 c-234 -53 -415 -175 -566 -380 -28 -38 -107 -193 -114
-225 -42 -177 -44 -192 -41 -315 2 -69 7 -138 10 -155 40 -190 146 -380 281
-503 105 -96 244 -172 391 -214 68 -20 101 -23 239 -22 144 0 169 3 248 27
362 111 607 395 662 767 13 89 4 274 -16 327 -5 13 -6 23 -3 23 2 0 0 9 -6 19
-9 18 -18 20 -113 15 -158 -8 -167 -8 -167 -16 0 -5 -3 -7 -7 -6 -12 3 -116
-21 -129 -30 -9 -6 -27 -61 -39 -125 -3 -10 -6 -26 -9 -35 -3 -9 -10 -55 -16
-102 -5 -47 -12 -94 -14 -105 -2 -11 -7 -45 -11 -75 -4 -30 -9 -63 -11 -74 -3
-18 -7 -56 -20 -191 -3 -33 -9 -62 -12 -65 -4 -3 -12 -14 -18 -25 -15 -27 -70
-32 -96 -8 -38 34 -51 74 -49 148 2 71 7 129 16 175 3 14 7 39 9 55 5 29 34
201 41 240 1 11 10 50 19 87 21 91 18 97 -47 86 -29 -5 -68 -11 -87 -13 -57
-6 -173 -26 -179 -30 -11 -6 -85 -15 -151 -16 -79 -2 -112 12 -134 58 -15 31
-15 39 -1 86 16 56 38 76 89 84 17 2 42 6 56 9 30 5 151 23 200 30 19 2 42 6
50 9 8 2 41 7 73 10 32 3 74 7 92 10 69 10 101 14 160 21 33 3 68 8 77 9 9 2
48 7 85 10 37 4 75 8 83 10 8 2 42 7 75 11 33 3 62 8 64 9 2 2 -17 30 -42 62
-117 152 -279 261 -473 319 -118 35 -326 42 -449 14z m-251 -401 c52 -61 55
-76 51 -220 -1 -74 -6 -181 -9 -239 -16 -274 -19 -356 -20 -492 -1 -132 -3
-148 -18 -148 -9 0 -23 -8 -30 -18 -7 -10 -23 -21 -35 -24 -31 -8 -113 46
-114 75 -1 12 -3 33 -5 47 -5 29 -4 138 1 190 1 19 6 89 10 155 3 66 8 147 10
180 2 33 6 105 10 160 6 121 14 203 21 230 8 28 44 107 56 123 17 21 45 13 72
-19z"/>
<path d="M2267 2705 c-27 -7 -61 -25 -77 -40 -27 -26 -30 -27 -31 -9 -1 10 -1
25 0 32 1 6 -7 12 -19 12 -20 0 -20 -5 -20 -229 0 -213 1 -229 18 -227 15 3
17 18 19 147 3 173 3 176 29 220 63 107 228 82 250 -37 3 -16 6 -95 7 -176 0
-111 3 -148 13 -152 7 -3 15 -2 18 2 2 4 3 86 2 182 -1 164 -3 178 -25 213
-37 60 -104 82 -184 62z"/>
<path d="M2743 2709 c-117 -16 -183 -112 -178 -258 3 -80 36 -146 94 -186 37
-26 51 -30 109 -30 96 1 155 37 188 114 18 42 18 41 -5 41 -11 0 -23 -12 -31
-29 -37 -90 -155 -122 -241 -66 -38 25 -63 67 -74 128 l-7 37 192 0 193 0 -7
43 c-19 116 -53 167 -131 195 -37 14 -63 17 -102 11z m125 -58 c33 -23 60 -74
69 -125 l5 -34 -172 0 -172 0 7 37 c8 49 53 112 95 134 45 23 127 17 168 -12z"/>
<path d="M3822 2709 c-58 -8 -94 -27 -118 -64 -22 -34 -13 -93 20 -121 24 -21
47 -30 179 -70 103 -31 131 -97 67 -156 -31 -28 -48 -32 -130 -29 -56 1 -89
24 -115 79 -25 53 -50 57 -42 7 13 -82 100 -131 211 -120 106 10 153 56 143
142 -6 60 -37 84 -160 121 -130 40 -149 53 -145 99 5 54 43 78 121 78 74 0
122 -27 132 -75 5 -21 13 -30 26 -30 16 0 18 5 13 28 -21 84 -95 125 -202 111z"/>
<path d="M3030 2643 c18 -56 95 -275 126 -360 10 -28 20 -40 31 -39 18 3 27
29 103 276 21 69 41 118 44 110 3 -8 30 -95 60 -193 29 -99 58 -183 64 -189 6
-6 15 -4 24 5 13 13 158 418 158 440 0 4 -8 7 -18 7 -14 0 -30 -38 -81 -190
-57 -171 -81 -227 -81 -188 0 8 -11 47 -24 88 -13 41 -39 124 -57 183 -28 93
-35 108 -52 105 -16 -2 -30 -37 -80 -202 l-61 -199 -66 199 c-56 168 -70 199
-87 202 l-21 3 18 -58z"/>
<path d="M3014 2113 c-15 -3 -28 -19 -42 -56 -33 -83 -196 -483 -242 -592 -58
-138 -57 -135 -27 -135 22 0 29 11 74 122 l49 123 197 0 196 1 48 -123 c45
-115 50 -123 75 -123 l27 0 -20 48 c-11 26 -38 92 -61 147 -46 117 -51 129
-71 175 -8 19 -48 116 -87 215 -40 99 -78 185 -84 191 -6 5 -21 8 -32 7z m101
-280 c46 -114 82 -209 80 -211 -2 -2 -81 -5 -174 -6 -119 -1 -171 2 -171 10 0
6 36 101 81 210 45 109 84 206 87 213 4 11 7 11 10 3 2 -7 41 -106 87 -219z"/>
<path d="M3630 2110 c-209 -4 -245 -7 -245 -20 0 -12 26 -16 150 -20 l150 -5
1 -360 c1 -198 2 -365 3 -372 0 -6 10 -9 21 -6 24 6 21 -33 22 406 l0 337 149
0 c148 0 149 0 149 23 0 26 9 25 -400 17z"/>
<path d="M2115 1720 c0 -340 2 -390 15 -391 24 -1 223 -1 378 0 135 1 142 2
142 21 0 19 -8 20 -242 22 l-243 3 0 368 0 367 -25 0 -25 0 0 -390z"/>
</g>
</svg>
