<?xml version="1.0" encoding="utf-8"?>
<!-- Generator: Adobe Illustrator 22.1.0, SVG Export Plug-In . SVG Version: 6.00 Build 0)  -->
<svg version="1.1" id="Layer_1" xmlns="http://www.w3.org/2000/svg" xmlns:xlink="http://www.w3.org/1999/xlink" x="0px" y="0px"
	 viewBox="0 0 1366 768" enable-background="new 0 0 1366 768" xml:space="preserve">
<g>
	<defs>
		<rect id="SVGID_5_" width="1366" height="768"/>
	</defs>
	<clipPath id="SVGID_1_">
		<use xlink:href="#SVGID_5_"  overflow="visible"/>
	</clipPath>
	<g clip-path="url(#SVGID_1_)">
		<path fill="#DCDBDB" d="M264.3,43.5c5.4-1.8,9.1,0.1,12,1.6c0.2,0.1,0.4,0.2,0.7,0.3c3.1,1.5,3.8-1.5,10.8-3.8
			c6.9-2.3,18.1,1.9,18.1-3.5c0-5.4-18.5-11.2-23.1-9.6c-1.3,0.4-2.9,0.2-4.7-0.3c-4.9-1.3-10.9-4.4-13.7-2.4
			c-3.8,2.7,5.8,8.5,5.8,11.9c0,3.5-15.4-0.7-16.9,3.1C252.4,42.8,258.5,45.5,264.3,43.5z"/>
		<path fill="#DCDBDB" d="M597.8,253.4c-1.5-6.5-3.7-5.2-7.5-5c-3.8,0.2-11.1-0.8-20.8-11.2c-9.6-10.4-19-9.6-25.4-7.9
			c-6.3,1.7-12.9-3.1-17.1-4c-4.2-1-8.3,4.4-11.3,5.6c-3.1,1.1,1.5-4.6,1.7-8.3c0.2-3.7-11.5-8.8-20.4-12.3
			c-8.8-3.5-12.7-1.7-12.7,3.8s-3.5-1.7-6.2,4.2c-2.7,6-7.7,2.1-4.4,0.2c3.3-1.9,6.3-6.3,7.5-10c1.2-3.7-12.7-6.5-17.5-4.6
			c-4.8,1.9-1.7,8.8-5.6,6.7c-3.8-2.1-0.8-7.3,2.3-7.1c3.1,0.2,6.5-6.1,8.6-10.8c2.1-4.6-3.6-5.4-7.1-9.2
			c-3.4-3.8-2.7-14.9-6.2-16.6c0,0-0.1-0.1-0.1-0.1c-3.7-1.5-9.2-10.4-14.8-11.5c-2.4-0.5-4.9-1.5-7.3-2.4c-3.1-1.2-6.1-2.3-8.7-2
			c-4.6,0.6-9.4,2.7-11.1,0.2c-1.7-2.5-4.2-2.1-6.5-0.2c-0.3,0.2-0.6,0.3-0.9,0.2c-2.4-0.2-5.9-7.2-8-7.2c-2.3,0-5-1.9-4.4-5.2
			c0.6-3.3-5.4-3.7-8.7-7.3c-0.8-0.9-1.9-1.5-3.2-2c-1.1,2.1-2.3,3.6-3.2,4.2c-2.2,1.2-5.3,4.7-3.1,5.9c2.2,1.2,2.8,4.4-1.2,4.7
			c-4,0.3-4.4,1.9-4,4c0.3,2.2-2.8,3.1-0.9,4.7c1.2,1,4,4.7,5.7,7c-0.7,1.2-1.1,2.7-2.3,3.1c-2.3,0.8-8.1,4.7-10.7,4.2
			c-2.6-0.5-6,0.5-6,3.4c0,2.9-2.9,2.1-3.4-0.3c-0.5-2.3-6-1-7.5-2.6c-1.6-1.6-8.8-0.8-5.7,1c3.1,1.8,3.4,3.6,3.4,6.5
			c0,2.9,2.3,2.1,2.3,5.5c0,3.4,2.6,1,4.4,1c1.8,0,1.8,3.1-1,3.6c-2.9,0.5-4.2,2.1-4.9,4.7c-0.8,2.6-3.4,0.8-5.7,2.9
			c-2.3,2.1-4.4,4.2-6,3.1c-1.6-1-2.9-0.3-4.7,0.8c-1.8,1-2.6,0-5.2-2.1c-1.9-1.6-3.2-5.3-6.6-8.7c-2.1,1-6.2,2.5-8.5,2.5
			c-3,0-12.6-0.7-13.1,1c-0.5,1.6,0.7,4.4,2.3,4.8c1.6,0.3,4.9,1.3,1.7,3.6c-3.1,2.2-5.9-0.8-5.9,4.7c0,5.5,7,9,5.5,14
			c-0.8,2.6-1.8,9.3-1.8,11.8c0,2.6-1,11.3-3.3,11.8c-2.3,0.5-4.4-2-7.4,0.5c-3.1,2.6-6.9,1-10.5,3.8c-3.6,2.8-7.4,1.8-7.7,5.1
			c-0.3,3.3-3.6,5.1-2.8,8.2c0.8,3.1-1.5,2.3-3.8,4.6c-2.3,2.3,0.3,3.8-1.3,5.6c-1.5,1.8,0.5,4.6,2.3,7.4c1.8,2.8,3.8,4.9,3.6,7.4
			c-0.3,2.6,1.8,3.6,4.4,3.3c2.6-0.3,0.5,4.9,4.6,4.9c4.1,0,8.2,1,9.2-1.3c1-2.3,3.8-4.1,3.8-0.8c0,3.3-0.8,12.3,2,11.3
			c2.4-0.9,6.8-0.8,9.8-0.1c-0.5-0.1-1-0.2-1.5-0.3c1.5,3.8,5.2,10,6,12.2c1,2.8-1.3,3.6-2.3,4.6c-1,1,0.5,10.2,0.8,12.3
			c0.3,2.1-3.6,5.9-2.1,7.2c1.5,1.3-2,5.1-2,7.4c0,2.3,3.3,2.3,3.3,4.1c0,1.8-2.8,5.9-4.6,6.9c-0.9,0.5-1,2-0.7,3.6
			c0.5-0.2,0.9,2.2,3.5,4.1c3.1,2.3-0.5,6.2,2.1,9.2c2.6,3.1,5.4,3.3,3.6,4.9c-1.8,1.5,0.3,4.6-1.8,6.2c-2,1.5,0.8,6.2,3.1,7.2
			c2.3,1,0.8,5.6,3.1,7.9c2.3,2.3,1.3,7.7,2,9.5c0.8,1.8,7.7-2.6,11.8-6.9c4.1-4.4,3.8-0.8,7.7-0.3c3.8,0.5,8.2,0.5,10,4.1
			c1.8,3.6,3.8-3.6,5.1-5.1c0.9-1.1,5.4-0.4,8.6-0.1c2.1,3.6,8.1,9.9,12,12.3c4.7,2.9,4.4,5.5,9.6,6c5.2,0.5,7.8,2.6,9.6,4.9
			c1.8,2.3,15.1,6.2,16.1,8.1c1,1.8-6.8,7-6.8,11.7c0,4.7-2.9,4.2-2.9,5.7c0,1.6,6,0.5,8.1,1.8c2.1,1.3,5.7-0.8,8.3,0.8
			c2.6,1.6,5.5-2.1,7.5-1.6c2.1,0.5,4.2-3.6,6.8-3.4c2.6,0.3,4.9-9.1,4.4-12.7c0-0.2,0-0.6,0-0.9c2.2-0.1,4.8-0.1,5.7,0.4
			c1.6,0.8,2.3,11.3,1.6,13.2c-0.8,1.9-7.2,3.7-10.5,5.8c-3.3,2.1-11.3,9.7-15,15.8c-2.2,3.6-5.4,6.5-7.6,9.1
			c-1.5,1.8-2.7,3.4-2.7,4.9c0,3.7-2.7,7.8-2.9,14.8c-0.2,7-2.1,5.8-2.3,11.3c-0.2,5.5,1.8,4.5,2.5,5.3c0.4,0.4-0.1,2.2-0.6,3.6
			c0.8,0.7,1.6,1.9,3.4,1.7c3.5-0.4,6.9,1,11.1,2.9c4.2,1.9,2.7-0.6,6.7,0c4,0.6,8.6,1,13.1-1.7c3-1.8,4.5-5,6.9-8.1
			c1.1-1.4,2.3-2.8,4-4c5.4-3.8,4-6.2,6.5-10.8c2.5-4.6,0.4-6.5,4.6-10.6c4.2-4-0.8-6.7,4.6-9.2c5.4-2.5,4.6,2.3,0.2,7.9
			c-4.4,5.6-5.2,7.1,0.6,2.9c5.8-4.2,7.9-10.2,11.1-16.9c3.3-6.7,5.8-8.8,8.6-9.2c2.9-0.4,2.9-7.5,2.5-12.5c-0.4-5-1.9-9.6,0.2-12.9
			c2.1-3.3,0-6.3,2.7-6.3c2.7,0,6.7-4,11-8.3c4.2-4.2,6.9-4.6,11.3-5c4.4-0.4,1.9-1.9,4.8-2.7c2.9-0.8,4.8-3.5,6.7-5.2
			c1.9-1.7,9.8,0.2,14.4,0.2c4.6,0,7.7,0.4,7.7-2.5s2.1-5.2,4.8-5.2c2.7,0,3.8-0.8,3.8-4.6s1.2-6.2,3.5-7.9c2.3-1.7,2.7-5.6,3.5-8.1
			c0.8-2.5,3.3-1,3.3-4.6c0-3.6,1.3-7.7,1.3-10.6s3.1-2.5,4.4-4.6c1.3-2.1-1.2-4.8,1-10.8c2.1-6,0-11.5,0-16.9c0-5.4,0-11,1.9-12.7
			c1.9-1.7,1-2.7-0.6-3.5c-1.5-0.8,0.2-2.9,1.5-2.5c1.3,0.4,2.9,3.3,5.4,1.7c2.5-1.5,4.8-8.1,6.9-13.5c2.1-5.4,5.6-5.2,8.3-6.3
			c2.7-1.2,8.5-7.7,12.1-17.1C603.1,269.2,599.3,260,597.8,253.4z M428.7,183.2c0.7,0.8,1.6,1.4,2.7,1.8c-1.7-0.5-2.8-1.7-3.6-2.9
			C428.1,182.5,428.4,182.9,428.7,183.2z M429.3,418.9c0-0.4-0.1-0.7-0.2-1.1C429.2,418.2,429.2,418.5,429.3,418.9z M429.2,419.7
			c0,0.4,0,0.8-0.1,1.3C429.2,420.6,429.2,420.2,429.2,419.7z M429,422c-0.1,0.5-0.1,1-0.2,1.5C428.9,423,428.9,422.5,429,422z
			 M428.6,424.5c-0.2,0.9-0.3,1.7-0.5,2.5C428.3,426.2,428.4,425.3,428.6,424.5z M428.2,416.3c0.4,0.2,0.6,0.5,0.8,1
			C428.8,416.8,428.5,416.5,428.2,416.3z M413.2,187.6c0.1,0,0.3,0,0.4,0C413.5,187.6,413.4,187.6,413.2,187.6z M411.2,187.3
			c-0.4-0.1-0.7-0.2-1.1-0.3c0.1,0,0.1,0,0.2,0.1C410.6,187.1,410.9,187.2,411.2,187.3z M412.5,187.5c-0.2,0-0.4-0.1-0.6-0.1
			C412.1,187.5,412.3,187.5,412.5,187.5z M399.4,373.6c0,0.1,0,0.2-0.1,0.3C399.4,373.8,399.4,373.7,399.4,373.6z M398,376.8
			c0,0-0.1,0.1-0.1,0.1C397.9,376.8,398,376.8,398,376.8z M405.8,186.4c-0.2,0-0.3,0-0.5,0.1C405.4,186.4,405.6,186.4,405.8,186.4z
			 M407.3,186.4c-0.2,0-0.5-0.1-0.7-0.1C406.9,186.4,407.1,186.4,407.3,186.4z M409.2,186.8c-0.3-0.1-0.6-0.1-0.9-0.2
			C408.5,186.6,408.8,186.7,409.2,186.8z M378.5,158.2c-0.4-0.1-0.8,0-1.2,0C377.6,158.2,378,158.1,378.5,158.2z M376.9,158.4
			c-0.2,0.1-0.3,0.1-0.5,0.2C376.6,158.5,376.7,158.5,376.9,158.4z M376,159.1c0,0.1-0.1,0.1-0.2,0.2
			C375.9,159.2,375.9,159.1,376,159.1z M299,300.3c0.5,0.1,0.9,0.2,1.3,0.4C299.9,300.6,299.4,300.5,299,300.3z M355.4,399.1
			c0.3,0,0.7,0,0.9,0.1C356.1,399.2,355.8,399.2,355.4,399.1z M356.7,399.2c0.3,0,0.6,0,0.8-0.1C357.3,399.2,357,399.2,356.7,399.2z
			 M396.1,378.2c-0.2,0.1-0.5,0.1-0.7,0.1C395.6,378.4,395.8,378.3,396.1,378.2z M427.5,430.4c0,0.3-0.1,0.7-0.1,1
			C427.4,431.1,427.4,430.7,427.5,430.4z M427.9,428c-0.1,0.5-0.2,0.9-0.2,1.3C427.7,428.9,427.8,428.5,427.9,428z M431.7,185.1
			c0.6,0.1,1.2,0.2,1.9,0.2C432.9,185.3,432.3,185.2,431.7,185.1z M434,185.2c0.7-0.1,1.6-0.2,2.5-0.5
			C435.6,185,434.8,185.2,434,185.2z"/>
		<path fill="#DCDBDB" d="M173.2,108.8c-0.6-0.8-1-1.5-1.2-1.9c-1.3-2.5,1-7.5,2.1-11.1c1.2-3.7-1-12.5,1.2-14.8
			c2.1-2.3,1-3.7,1.9-9c0.1-0.3,0-0.6,0-0.9c0.1-4.2-5.7-2.9-9.6-6.8c-4.2-4.2-13.5-2.3-18.5-0.4c-5,1.9-10.8-2.1-16.1,1
			c-0.1,0-0.1,0.1-0.2,0.1c-3,1.6-3.9,0.1-3.5-2c0.3-1.5,1.3-3.3,2.7-4.4c3.5-2.7-1.7-13.5,2.3-14.4c0.7-0.2,1.4-0.6,1.9-1.1
			c0,0,0,0,0,0c2.5-2.3,3.4-7.5,3.9-11.8c0.6-5.2-1.2-6.9,1.5-9.8c2.7-2.9,5.6-3.1,4.8-7.1c-0.8-4-4.4,0-7.5-1.9
			c-3.1-1.9-5.8-0.6-13.6,0.6c-7.9,1.1-11.5,4.4-11.1,10c0.4,5.6-2.7,3.1-2.5,7.9c0.2,4.8-6.2,5-5.8,7.9c0.4,2.9-5,0-6.5-1
			c-1.5-1-18.1,4-20.4,4.4c-2.3,0.4-6.5-4.8-9.8-4.6c-3.3,0.2-4.6-4.8-5-8.8c-0.4-4-6.5-7.7-9.2-11.3c-2.7-3.7-3.1-11.7-3.3-16.9
			c-0.2-5.2-0.8-14,2.9-24.2c0.5-1.4,0.7-2.6,0.8-3.6c-1.3-0.8-2.6-1.4-3.6-1.4c1-0.1,2.3,0.5,3.6,1.3c0.4-6.9-6.7-8-2.5-11.2
			c4.8-3.7-0.2-6.7,2.1-8.3c2.3-1.5,6.3-3.1,6.3-5.4c0-2.3,2.1-2.3,5.2-1.9c3.1,0.4,8.8-5,8.5-7.1c-0.4-2.1,0.6-2.5,4.2-1.7
			c3.7,0.8,3.1-4.2,5.4-3.5c2.3,0.8,4.2,2.1,4.4,0.4c0.2-1.7,2.5-1.3,4.2,1c1.7,2.3,6.7,2.9,7.1,0.2c0.4-2.7,3.3,0,5.8,2.7
			c2.5,2.7,3.7,1.9,7.3,2.1c3.7,0.2,3.7-0.8,3.8-3.1c0.2-2.3,4,5,7.7,5.4c3.7,0.4,0.8-2.3-1.9-4.4c-2.7-2.1,0.6-3.1-1.7-4.8
			c-2.3-1.7,2.9-4,7.5-3.8c4.6,0.2,4.4,1.3,6.2-1.3c1.7-2.7,3.5,0,3.5,2.3c0,2.3,7.5-1.3,11.5-1.3c4,0,7.7,3.5,8.1,5.8
			c0.4,2.3,3.1,3.5,6,1c2.9-2.5,5.4-5.4,8.1-2.7c2.7,2.7,5.4,6.3,8.6,9.6c3.3,3.3-1.5,7.3,0.2,9.8c1.7,2.5-0.2,6,3.6,8.7
			c3.8,2.7,0.4,8.3,3.5,9c3.1,0.8,5.6,5.6,6,7.5c0.4,1.9,6.2,4.4,6.5,1.2c0.4-3.3,3.5-7.1,3.8-10.2c0.4-3.1-2.3-14-4.8-17.5
			c-2.5-3.5,0.6-4.2-2.5-8.3c-3.1-4-5-11.2-4.8-16.9c0.2-5.8,6.9-15.2,10.2-18.1c3.3-2.9,6.9-1.3,7.7-4.4c0.8-3.1,4.8-6.9,7.1-6.9
			c2.3,0,4.8,0.6,5.2-1.9c0.4-2.5,4.2-5.6,9.2-6.3c5-0.8,2.1-3.5,0.8-5.8c-1.3-2.3,1.2-4.6,2.1-3.1c1,1.5,4,1.7,6,0.4
			c1.9-1.3,6.3-5,2.1-5.2c-4.2-0.2-5.2-1.9-2.7-2.9c2.5-1,0.4-5.6-3.1-6c-3.5-0.4-2.3-2.1-0.2-4.2c2.1-2.1-3.1-5.6-5.6-7.3
			c-2.5-1.7,1.5-2.7,3.5-3.1c1.9-0.4,0.4-9.2,1.3-11.3c1-2.1,4.2-2.1,2.9,0c-1.3,2.1-3.3,5.6-0.8,8.5c2.5,2.9,3.3,6,2.3,10.4
			c-1,4.4,1,3.3,3.8-2.5c2.9-5.8,3.3-10.8,1.3-11.3c-1.9-0.6-1.7-6.3,0.4-3.6c2.1,2.7,2.9,3.1,6.2-0.4c3.3-3.5,6.7-9.4,4.6-10.8
			c-2.1-1.3,1-2.7,4.8-2.5c3.8,0.2,12.1-2.3,12.7-3.5c1.9-3.8-13.3,1.7-13.3-0.4c0-2.1,9.6-4.2,14-4.4c4.4-0.2,2.3-6.2,4.2-3.7
			c1.9,2.5,4.8,2.1,7.3,0.6c2.5-1.5,0.6-6-2.3-6.7c-2.9-0.8,2.1-2.7,1.2-4.4c-1-1.7,1.9-8.7,5.6-9.4c3.7-0.8,1.9-3.1,5-3.1
			c3.1,0,3.7-3.6,6.3-6.3c2.7-2.7,6.5,4.2,10.8,0.4c1.7-1.6,4.1-3.3,6.5-4.9c3.5-2.2,7.1-3.9,9.1-3.8c3.5,0.2,8.6-4.4,10.2-7.3
			c1.5-2.9,3.7,2.7,0.6,3.7c-3.1,1,2.5,3.3,7.9,3.1c5.4-0.2-2.5,1.9-6.5,1.7c-4-0.2-5.8,0.4-11.1,5.8c-5.4,5.4-4,6.9-1,9.6
			c3.1,2.7,7.1,1.5,11.3-2.1c4.2-3.7,4-7.3,8.3-7.1c4.2,0.2,15.2-3.8,20-5.4c4.8-1.5,1.7-2.3,1.7-4.4c0-2.1,8.5-2.1,11.5-4.2
			c3.1-2.1-0.6-3.8-3.3-3.5c-2.7,0.4-0.6-3.8-0.2-6c0.4-2.1-5.8,1-6,3.5c-0.2,2.5-4.4,3.5-4.4,5c0,4.5-0.6,2.1-3.7,3.7
			c-3.1,1.5-15,0-15.4-2.7c-0.4-2.7-9-4-9.4-7.7c-0.4-3.7-4.6-4.8-1.2-8.8c3.5-4-0.6-6-3.8-2.9c-3.3,3.1-5.2-1.7-0.8-3.5
			c4.4-1.7,12.7-3.5,8.5-11.1c-4.2-7.7-30.8,2.3-37.5,6.1c-6.7,3.8-15.2,16.1-18.8,16.1c-3.7,0,6.3-6.5,7.9-9c1.5-2.5-0.4-5,1.7-4
			c2.1,1,8.1-8.3,12.1-11.3c4-3.1,8.5-0.2,9-2.7c0.6-2.5,2.5-4.2,6.3-7.7c3.8-3.5,49.8-2.9,54.2-2.7c4.4,0.2,13.1-5.8,15.6-9.6
			c2.5-3.8,5.8-3.8,11.9-3.5c6.2,0.4,9-5.2,12.1-7.3c3.1-2.1,1.9-3.1-0.8-3.6c-2.7-0.6-5.2-2.3-2.5-2.5c2.7-0.2,4-1.7,5.2-5.2
			c1.2-3.5-1-1.9-4.6-6.7c-3.7-4.8-5.6,1.5-9.2,1.2c-3.7-0.4,2.5-5-0.6-6.9c-3.1-1.9-8.8-0.6-13.5,3.3c-4.6,3.8-4.2-0.2-8.3,3.6
			c-4,3.8-4-1.9-2.1-3.5c1.9-1.5,3.3,0.2,5-2.1c1.7-2.3,3.5,0,7.9-2.9c4.4-2.9,8.3-1.5,9.6-3.6c1.3-2.1-2.1-5-6.3-4
			c-4.2,1-7.1-5.8-9.8-3.8c-2.7,1.9-2.1-2.9-5.2-1c-3.1,1.9-4.8-0.6-6.2-4.2c-1.3-3.7-9.6-9.6-14.6-11.1c-5-1.5-1.7-4.2,1-2.3
			c2.7,1.9,5.8-1.9,6.9-3.8c1.2-1.9-1.9-3.6-3.5-3.8c-1.5-0.2-1.5-2.7-1.2-4.6c0.4-1.9-5.4-4.4-5.6-6.3c-0.2-1.9-3.5-3.3-3.3-5
			c0.2-1.7-3.3-4.2-3.3-6.5c0-2.3-5.8-6.9-6-9.6c-0.2-2.7-3.3-4.6-4.4-7.9c-1.2-3.3-2.7-1.7-3.8,2.9c-1.2,4.6-5.2,4.4-4,6
			c2.4,3.2,0.6,3.3-1.2,5.2c-1.7,1.9,1.2,4.8-1.7,4.8c-2.9,0-1.5,6-3.1,3.3c-1.5-2.7-5.2-1.9-5.2,0.8s-6.2,5.2-8.6,5
			c-2.5-0.2-2.5-5.4-4.6-3.8c-2.1,1.5-1.7-4.4-5-4.2c-3.3,0.2-5.6-0.2-4.6-3.1c1-2.9-5.6-4.2-3.5-6c2.1-1.7-0.6-4.8-1-9.8
			c-0.4-5,2.9-5.4,2.9-7.3c0-1.9-2.3-1.9-4.6-0.4c-2.3,1.5-2.3-2.1-4.8-1.9c-2.5,0.2-10-0.2-10.4-3.7c-0.4-3.5-2.9-1.7-4-5
			c-1.2-3.3-4.2-0.8-4.2-3.1c0-2.3-1.3-3.3-3.7-3.5c-2.3-0.2-3.1-2.7-6.2-3.1c-3.1-0.4-6.9,2.1-8.6,2.9c-1.7,0.8-6.2-2.7-7.9-1.3
			c-1.7,1.3-2.1-1-6.9-2.3c-4.8-1.3-11.1-1.7-11.5,0c-0.4,1.7-4.2,2.3-3.7,6.3c0.6,4,4.6,3.3,5.6,6c1,2.7-1.9,1.7-2.1,4.2
			c-0.2,2.5-2.7,2.3-2.7,4c0,1.7,1.7,1.3,2.7,4.8c1,3.5,2.9,3.3,3.5,7.9c0.6,4.6-1.5,3.7-3.5,4.2c-1.9,0.6,0.2,2.9-2.5,6
			c-2.7,3.1-5,6.3-2.9,8.3c2.1,1.9,10,5.2,13.1,10.4c3.1,5.2,2.9,13.3,1.9,19c-1,5.8-7.5,7.1-12.3,12.1c-4.8,5-9.8,4.2-12.1,4.4
			c-2.3,0.2-1,4.8,2.3,8.5c3.3,3.7,0.6,4.8,2.3,8.7c1.7,3.8,0,6.9,2.5,10.4c2.5,3.5,1,4.8-1.9,7.3c-2.9,2.5,1.2,1.2,1.3,4.4
			c0.2,3.3-1.3,1.3-3.8-0.4c-2.5-1.7-4.8,3.3-4.8,5.4c0,2.1-6-2.9-7.3-2.7c-1.3,0.2,0.4-3.3-3.1-6c-3.5-2.7-6.2-3.3-6.2-6
			s-6-4.6-6-7.7c0-3.1,0.8-11-0.6-13.3c-1.3-2.3-0.2-4.8,1-6.9c1.2-2.1-1.3-5.4-4.8-5.4c-3.5,0-8.3-1.2-13.1-0.8
			c-4.8,0.4-7.5-0.4-9-1.7c-1.5-1.3-6-4.2-11.9-5.8c-6-1.5-8.7-4.6-9.2-6.3c-0.6-1.7-6.5-3.1-7.9-4.8c-1.3-1.7-7.1-2.7-9.4-2.3
			c-2.3,0.4-8.1-4.8-11.5-4.6c-3.5,0.2-11.5,3.7-12.9,3.8c-1.3,0.2,0.2-2.9,1.2-4.2c1-1.3-2.9-7.1-3.8-11c-1-3.8-2.3-8.1-6.3-7.5
			c-4,0.6-8.5-1.5-9.6-2.3c-1.2-0.8-1.3-11.7-0.4-16.3c1-4.6,6-11.5,6-14.4c0-2.9,3.3-4.2,6.2-5c2.9-0.8,0.6-6.3,3.5-6.7
			c2.9-0.4,3.1-1.5,3.7-3.8c0.6-2.3,4-0.8,2.1-2.7c-1.9-1.9-0.4-2.5,4-2.5c4.4,0,11-1.5,10-6c-1-4.4-12.5-1.2-12.5-4.8
			c0-3.7-14.6-3.8-13.6-6c1-2.1,14.6,1.5,19.6,3.5c5,1.9,6.3,1.7,10.4,1.5c4-0.2,1.3-5.4,2.1-7.5c0.8-2.1,8.5,3.3,12.9,2.1
			c4.4-1.2,8.6-10.2,12.3-12.7c3.7-2.5,0.4-4.8-6.7-4.2c-7.1,0.6-11.1-2.1-15-5c-3.8-2.9-3.5-5.2,0.6-4.8c4,0.4,13.6,8.3,17.3,8.5
			c3.6,0.2,10-7.1,13.1-9.4c3.1-2.3-2.9-3.3-5-5c-2.1-1.7,3.6-2.9,6.7-2.9c3.1,0,4.4,2.7,5.6,4c1.2,1.3,6.5-1,9.2-1
			c2.7,0-0.4-4.4-4.8-6.2c-4.4-1.7,0.2-5,1.5-2.3c1.3,2.7,4.4,2.1,6,5.2c2.2,4.5,3.7,1.5,7.5,0.2c3.8-1.3,5.8-3.7,7.9-6
			c2.1-2.3,2.5,0.4,5-3.3c2.5-3.7-1.2-7.1-4.2-9.4c-3.1-2.3,0.2-4.6-2.9-6.1c-3.1-1.5-3.7-4.4,0.2-3.7c3.8,0.8,6.9-0.4,8.6-3.1
			c1.7-2.7-5.8-3.3-2.3-5.2c3.5-1.9,0.6-3.8-2.9-3.8c-3.5,0-6.3-1.7-6.5-4.6c-0.2-2.9-6.2-1-9.8-2.7c-3.7-1.7-11.7-1.3-13.6-1.1
			c-1.9,0.2-2.1,8.1,0.8,8.3c2.9,0.2,5.2,3.3,2.7,4.2c-2.5,1,0.4,4-1.5,3.8c-1.9-0.2-5-1.1-5.6,3.8c-0.6,5-1,6.9-4.2,8.7
			c-3.3,1.7-0.8-5.6-3.8-5.4c-3.1,0.2-3.5,6.2-1.2,6.7c2.3,0.6,2.7,2.5,3.3,5.4c0.6,2.9-4.2,0.8-6.2,4.2c-1.9,3.5-2.1-1.5-4.8-3.8
			c-2.7-2.3-6-6.2-5.8-9c0.2-2.5,1.5-3.5,3.7-3.8c2.1-0.4,0-2.3-0.2-5.8c-0.2-3.5-2.7-2.3-5.8-6c-3.1-3.6-6.3-3.6-8.1-1.9
			c-1.7,1.7-0.6,5-3.3,6.2c-2.7,1.2-1.5,6.5-3.8,6.9c-2.3,0.4-1-9.4-2.9-10.4c-1.9-1-1.7-3.3,1.2-3.6c2.9-0.4,4.6-3.5,2.1-3.5
			c-2.5,0-6.9-2.7-8.6-3.5c-1.7-0.8-4.6,3.3-6.5,1.7c-1.9-1.5,0.2-5.4,0.4-7.5c0.2-2.1,3.1,1,5-1.7c1.9-2.7-5.4-2.7-5.4-5.6
			c0-2.9-5.8-3.7-7.7-4.6c-1.9-1,1.3-5.8,0.4-7.7c-1-1.9-8.1-8.3-11.1-7.7c-3.1,0.6-3.8-4-2.1-3.8c1.7,0.2,3.1-1,6.3-4.6
			c3.3-3.7,3.6-4.8,1.3-5.6c-2.3-0.8-3.5-3.1,0.6-2.9c4,0.2,11.1,2.9,13.5,1.2c2.3-1.7,9.6-13.1,12.5-17.1c2.9-4-2.1-4.4-9-3.8
			c-6.9,0.6-8.5-2.7-14.2-3.1c-5.8-0.4-16.5,1.2-18.1,2.9c-1.5,1.7,2.9,3.3,2.3,5.2c-0.6,1.9-4-1.3-5.6-0.6c-1.5,0.8,0.6,3.3,0,10
			c-0.6,6.7,1.3,7.1,3.3,9.6c1.9,2.5,1.5,5.8,1.5,10c0,4.2-4,4-5.4,5c-1.3,1,3.5,2.5,2.7,5.2c-0.8,2.7-4.8-1.5-7.1-0.8
			c-2.3,0.8-4.2,7.3-1.7,9.4c2.5,2.1,3.5,1.7,1.5,4.2c-1.9,2.5-4,6.1,0.6,9.8c4.6,3.7,13.1,3.3,17.5,6.2c4.4,2.9-1.9,1.2-0.2,4.4
			c1.7,3.3-2.9,4.4-2.7,6.9c0.2,2.5,1.9,1.2,4.2-3.1c2.3-4.2,4,1.2,3.8,4.8c-0.2,3.7-3.5,1.5-6,5.2c-2.5,3.7-4.8,4.2-8.5,3.5
			c-3.7-0.8-1.5,5.2,0,8.5c1.5,3.3-0.4,4.4-4.6,3.3c-4.2-1.1-6.7-3.8-4.6-7.1c2.1-3.3,3.7-7.1,1.2-6.7c-2.5,0.4-8.3-0.2-10-2.9
			c-1.7-2.7,1.2-1.5,6.3-1c5.2,0.6,0.8-3.5,4.6-3.5c3.8,0,6.7,2.1,10-0.8c3.3-2.9-2.1-8.5-4.8-7.5c-2.7,1-6.9,2.1-6.9-0.6
			c0-2.7,4.6-0.8,7.1-1.3c2.5-0.6-1.3-4-5.2-3.1c-3.8,1-6.5,1.2-9.6-2.1c-3.1-3.3-8.6-5.2-10,2.3c-1.3,7.5-6.7,3.5-8.8,6
			c-2.1,2.5,2.5,4.2,7.7,4.4c5.2,0.2,9,5,6.5,5c-2.5,0-1.3,3.7-4,2.3c-2.7-1.3-5.4,0-3.5,2.3c1.9,2.3-0.8,3.3-0.6,5.6
			c0.2,2.3-4,0.2-8.1-0.2c-4-0.4-11.5,1-16.9,2.1c-5.4,1.2-11.3-0.8-13.6-3.3c-2.3-2.5-5.4-2.1-9.2-2.1c-3.8,0-2.7-3.7-7.7-3.8
			c-5-0.2-3.8-4.4-4.4-6.9c-0.6-2.5-10.6-1.7-14.2,0.6c-3.7,2.3-10.8,1.3-12.7,5.6c-1.9,4.2,1.7,3.7,3.8,3.7c2.9,0,2.7-3.5,8.1-2.7
			c5.4,0.8,9.2-5.6,11.5-3.3c2.3,2.3-9.2,6.7-14.2,7.5c-5,0.8-3.8,4.8,1,11.9c4.8,7.1-2.1,3.1-2.1,6.5c0,3.5-9-1.2-5.4-2.3
			c3.6-1.2,1.9-4.8-1-7.1c-2.9-2.3-4.8,0-4.4-2.5c0.4-2.5-3.1,0.2-5.8-1.9c-2.7-2.1-4-3.8-7.7-1.9c-3.7,1.9-7.9,1.3-16,2.7
			c-8.1,1.3-22.9,1-25.6-1.7c-2.7-2.7,6.9-7.5,9.8-6.7c2.8,0.7,1.2-3.1-3.3-6.5c-4.4-3.5-14.2-5.6-14-3.5c0.2,2.1-5.6,0.2-12.7-1.1
			c-7.1-1.3-8.1-3.8-12.7-4c-4.5-0.2-11.5-1.5-16.9-5.8c-5.4-4.2-18.1-3.1-19.6,0.8c-1.5,3.8-5.8,3.7-10,3.7c-4.2,0,1.9-4.8,0.4-5.6
			c-2-1.1,0.2-6.3-2.9-6.7c-3.1-0.4-6,12.7-11.7,12.3c-5.8-0.4-8.3-13.8-13.1-17.3c-4.8-3.5-9.2-3.7-5.2,1.5c4,5.2-3.5,1.5-3.1,5
			c0.4,3.5-6.5,7.5-6.3,5.6c0.2-1.9-3.8-4-8.5,1.3c-4.6,5.4-7.9,4.6-8.3,2.7c-0.4-1.9-14,5-13.5,7.3c0.6,2.3-2.1,4-5.8,3.8
			c-3.7-0.2-0.8-3.3,2.1-4.8c3.2-1.7,12.1-8.8,16.7-9.6c4.6-0.8,13.5-4.4,13.6-6.5c0.2-2.1-4.4-0.4-7.5-1c-3.1-0.6-8.5,2.9-13.6,5.2
			c-5.2,2.3-11.1,1.5-9.6,4.6c1.5,3.1-4.8-0.4-6.2,1.7c-1.3,2.1-3.8-0.2-1.9-1.3c1.9-1.2-4.6-3.3-4.6-1.9c0,1.3-1.2,3.1-5.8,3.1
			c-4.6,0-9.2,3.3-6.2,5.6c3.1,2.3,5,3.5,3.5,5c-1.5,1.5-6.3-4-13.1-3.5c-6.7,0.6-20.2-7.5-20.2-9.4c0-1.6-9.5-0.6-16-1.3
			c-1.5-0.2-2.9-0.4-4-0.8c-5.6-2.1-13.8-6-18.3-5c-4.4,1-13.3,2.1-16.3,0.6c-3.1-1.5-7.3-2.9-13.6-1.9c-6.3,1-10.4-3.5-18.5-5.4
			c-8.1-1.9-19.4,0.6-22.1,1.5c-2.7,1-2.1-2.9-5.6-2.5c-3.5,0.4-0.8-1.5-2.7-4.4c-1.9-2.9-11.5-0.2-15,0.2c-3.5,0.4-4.4-1.7-4.2-3.5
			c0.2-1.7-3.1-1.2-4.4,1.2c-1.3,2.3-5.2,2.7-6.7,1.2c-1.5-1.5,3.3-2.1,3.5-3.8c0.2-1.7-5-2.7-6.9-3.3c-1.9-0.6-5,1.9-9,5.6
			c-4,3.6-10,3.3-13.6,2.9c-3.6-0.4-8.3,0.4-8.1,2.5c0.2,2.1,4.6,1.9,1.9,4.6c-2.7,2.7-3.6-3.6-6.3-0.8c-2.7,2.9-10.8,2.7-12.7,2.3
			c-1.9-0.4-8.3,6.5-10.2,8.5c-1.9,1.9,1.5,3.7-3.6,9.2c-5.2,5.6-19,4.4-21.9,4.4c-2.9,0-0.8,3.3-2.3,5.4c-1.5,2.1,1.7,4,9.6,6.1
			c7.9,2.1,13.3,12.5,14.2,15c1,2.5,10.8-0.2,14.6,0.4c3.8,0.6-0.4,6,2.9,7.5c3.3,1.5,8.3-0.8,9.2,1.9c1,2.7-6.5,0-10.4,2.9
			c-3.8,2.9-5.8,4.2-7.3,2.1c-1.5-2.1-7.9-0.8-11.1-0.4c-3.3,0.4-0.2-4,0-6c0.2-1.9-4.4-3.3-10.8,0.4c-6.3,3.6-4,2.3-4.8,5.2
			c-0.8,2.9-3.5-1.7-7.5,0.8c-4,2.5-10.6,4.2-11.7,6.7c-1.2,2.5,8.6,4.2,12.5,5c3.8,0.8-4.6,3.3-1.5,4.2c3.1,1,1.7,3.8,6.5,6.3
			c4.8,2.5,15.6,0,18.5,0c2.9,0,5.6,3.5,7.9,1c2.3-2.5,11-9.4,15.4-5.4c4.4,4-4.8,3.5-2.5,6c2.3,2.5,5.2,8.5,1,11.5
			c-4.2,3.1-8.3,1-10.6,0.8c-2.3-0.2-1,4.2-4.6,7.1c-3.7,2.9-6.3-3.1-11-3.1c-4.6,0-3.6,6-3.5,8.8c0.2,2.9-6.9-0.6-8.6,6.3
			c-1.7,6.9-9,1-4.2,7.7c4.8,6.7,4,2.5,7.9,5.2c3.8,2.7-4.2,7.5-0.4,8.3c3.8,0.8,8.1,7.7,10.8,10.2c2.7,2.5,6.2-1.3,10.2-1.5
			c4-0.2,2.1-5.8,4.4-3.6c2.3,2.1,5.6,8.3,3.5,9.8c-2.1,1.5-0.4,6.3-0.8,8.6c-0.4,2.3,8.8,1.5,9.4-1.2c0.6-2.7,7.9-3.5,11.9,1
			c4,4.4,5.4,5.2,5.4,1.7c0-3.5,3.5-7.3,3.6-4.4c0.2,2.9,3.5,3.6,9.4,1c6-2.7,3.3,0.2,0.2,4c-4.2,5.3,0,13.1-3.1,13.8
			c-3.1,0.8-5.6,8.7-10.6,9.2c-5,0.6-13.5,10-14.6,11.5c-1.2,1.5-11.9-3.1-13.5,1.3c-1.5,4.4-8,7.7-6.3,9.4c1.2,1.2,10-3.3,10.4-5.6
			c0.4-2.3,1.5-1.9,3.1-0.2c1.5,1.7,5.4-0.8,7.1-2.3c1.7-1.5,4.6-1,6.3-0.8c1.7,0.2,2.5-2.1,7.7-3.1c5.2-1,4-2.5,5.2-5.2
			c1.2-2.7,13.5-8.5,15.8-9c2.3-0.6,1-4.4,3.5-4.6c2.5-0.2,6.3-3.3,9.6-6c3.3-2.7,4-1.5,6.5-2.5c2.5-1,0.6-6,3.1-6.3
			c2.5-0.4,4.4-2.3,4.4-4.4c0-2.1-6.3-2.1-6.9-3.5c-0.6-1.3,5-6.3,7.1-6.2c2.1,0.2,5.6-2.1,5.8-5.2c0.2-3.1,3.3-3.7,5.8-6.3
			c2.5-2.7,1.9-5,4.4-5.2c2.5-0.2,4.8-3.7,7.5-5.2c2.7-1.5,0,1.9,5.2,2.1c5.2,0.2,4,5,0.2,3.3c-3.8-1.7-5.6-1.5-9,1.7
			c-3.5,3.3-0.8,4.2-3.5,7.9c-2.7,3.6-2.9,6,0.6,6.3c3.5,0.4,0.2,2.9-3.1,3.8c-3.3,1-1,2.9,3.5,2.9c4.4,0,11-6.3,17.1-9.4
			c6.2-3.1,10.8,0,12.5-0.6c1.7-0.6-1.9-3.5,0.2-4.4c2.1-1-2.5-1.5-3.8-5.2c-1.3-3.6,2.1-1.3,2.9-4.2c0.8-2.9,2.9-1.7,4.8-0.4
			c1.9,1.3,4.6-1.3,6.3,2.3c1.7,3.7,3.7-1,6.7,1.5c3.1,2.5-0.6,2.1-3.8,2.9c-3.3,0.8-1.5,5.2,1,3.1c2.5-2.1,4.6-3.5,6.9-1.3
			c2.3,2.1,3.3,1.1,5.2-0.8c1.9-1.9,1.9,0.2,1.9,1.7c0,1.5,4,2.1,9.8,3.1c5.8,1,16.1-0.4,18.8-0.6c2.7-0.2,1.7,4,7.7,5.2
			c6,1.2,7.5-6,10.6-3.5c3.1,2.5,0,3.5-1.7,5.4c-1.7,1.9,1.9,2.1,4.2,3.1c2.3,1,7.7,2.5,10.2,5c2.5,2.5,4,5.2,10.2,8.3
			c6.2,3.1,0.2-7.7,5-4.2c4.8,3.5,3.1,0.2,6.9,3.6c3.8,3.5,2.5-1.5,0.8-7.3c-1.7-5.8,1.7-1.9,3.5,0.8c1.7,2.7,1.7,7.9,0.6,11.3
			c-1.2,3.5-6.9,0.6-6.3-1.3c0.6-1.9-5.8-1.2-6,1.5c-0.2,2.7,4,7.9,7.1,8.5c3.1,0.6,0.8,5.4,2.7,6c2.6,0.8,2.5,5.8,4,5
			c1.5-0.8,1-6.7-0.8-9.4c-1.7-2.7-1-6.5,1.3-5.8c2.3,0.8,0,4.8,1.2,6.2c1.2,1.3,2.5-1.3,5.2-2.9c2.7-1.5-1.2-6-0.2-8.3
			c1-2.3,4,1.9,5.2,6c1.2,4-2.9,3.9-2.9,6c0,2.1-3.7,1.2-4.8,2.3c-1.2,1.2-0.6,8.8,1,9c1.5,0.2,2.5-6.3,3.5-3.1
			c1,3.3,4.6-4.2,5.6-1.2c1,3.1,5.6,6.5,7.3,5.8c1.7-0.8-0.8-4-3.5-4.2c-2.7-0.2-2.3-4.6,0.2-4.8c2.5-0.2,6.9,6.3,6.7,8.7
			c-0.2,2.3-2.3,2.1-4.4,4.4c-2.1,2.3-5-3.8-7.5-3.7c-2.5,0.2,0,4,1.2,6.7c1.2,2.7-3.1,6.3,0.2,8.5c3.3,2.1,2.3-1.3,2.9-2.9
			c0.6-1.5,3.1,0.4,4.8,1.7c1.6,1.3,1.9-3.1,1.9-4.8c0-1.7,2.9-0.8,4.4,1.5c1.5,2.3,1.7-2.5,4-2.1c2.3,0.4,0.8,4,0.8,6.2
			c0,2.1,4-1.7,3.6,0.6c-0.1,0.3-0.1,0.7,0,1c0.2,1.7,1.7,2.8,3.7,4.4c2.3,1.9-4.2,1.9-2.3,3.7c1.9,1.7-0.4,4.4,1.5,6.5
			c1.9,2.1,5.4,1.3,7.5-0.4c2.1-1.7,3.7,2.1,1.9,5c-1.7,2.9,1.9,5,3.7,2.9c1.7-2.1,5.4,3.5,7.1,4.4c1.7,1,3.5,3.8,0.6,3.8
			c-2.9,0-2.5,5-0.4,5.2c2.1,0.2,1.9,2.9,1.9,4.6c0,1.7,6.7,4.2,9.2,3.5c2.5-0.8,4.8,1.5,6,3.6c1.2,2.1,5.8,3.6,7.5,2.3
			c1.7-1.3,2.9,2.5,3.3,5.2c0.4,2.7,4.2,1.2,6.5,1c2.3-0.2,3.7,3.1,5.2,2.5c3.4-1.3,4.4,4.6,6.6,8.1c0.3,0.4,0.5,0.8,0.8,1.1
			c2.9,3.1,0.6,5.4,1.5,9c1,3.7,0.2,8.8-2.7,8.8c-2.9,0-3.3-3.3-1.2-4.4c2.1-1.2,1-5.4-1.2-5.4c-1.2,0-1.7-1.4-1.7-3.1
			c0-1.2,0.3-2.5,0.9-3.6c1.3-2.5-2.9-0.8-5.4-3.5c-2.5-2.7-9-2.1-10-4.6c-1-2.5-6.9-11.5-10.2-11.3c-3.3,0.2-7.5,0.4-11.3-2.5
			c-3.8-2.9-6.3-3.1-9-1.3c-2.7,1.7,2.9,2.1,2.7,4c-0.2,1.9,1.7,3.1,4,2.7c2.3-0.4,3.6,4.4,6,4.6c2.3,0.2,3.1,3.8,5.8,3.8
			c2.7,0,3.3,3.1,4.6,4.8c1.3,1.7,4.4,0.2,4.4,1.9c0,1.5,3.1,3,3.8,4.9c0.1,0.2,0.2,0.4,0.2,0.7c0.2,2.3,1.3,7.5,4.4,11.5
			c3.1,4,1,6.5,3.8,8.1c2.9,1.5,2.7,3.3,0,2.9c-2.7-0.4-0.8,2.1-1.7,7.9c-1,5.8-0.8,17.7-1.3,21.3c-0.6,3.7-4.8,9.6-2.3,13.5
			c2.5,3.8,4.2,9.2,2.9,14c-1.3,4.8-1.2,7.7,1,11.3c2.1,3.7,0.4,10,2.7,11.3c2.3,1.4,4.4,4,6.5,7.5c2.1,3.5,4,1.3,4.4,4.8
			c0.4,3.5,0.4,4,3.5,5.4c3.1,1.3,1.2,4.8,1.2,6.7c0,1.9,4,5.4,9,9.8c5,4.4,0.8,8.1,4.4,8.1c3.7,0,7.1,2.1,10.8,4.4
			c3.6,2.3,4.8,1,7.3,1.5c2.5,0.6,7.1,6,8.1,9.6c0.5,1.7,1,3.5,1.9,5.5c1,2.2,2.4,4.6,4.6,7.2c4,5,6.9,13.8,7.3,16.9
			c0.4,3.1,6,5.6,10.8,8.7c4.8,3.1,4.8,9.8,4.2,11.5c-0.6,1.7-6.5-1.1-6.9,0.6c-0.4,1.7,7.7,8.5,10.8,8.1c3.1-0.4,4.6,1.5,9.4,5.8
			c4.8,4.2,4.4,9.2,2.5,10.8c-1.9,1.5,3.8,4.8,10,8.8c6.1,4,8.6,9,9.2,11.1c0.6,2.1,3.3,0.2,4.2-2.7c1-2.9-1.9-3.6-1.9-6.9
			c0-3.3-5-2.7-7.3-3.1c-2.3-0.4,0.2-5.4-2.1-7.7c-2.3-2.3-4.4-8.1-5.6-12.3c-1.2-4.2-7.1-8.5-9.6-13.1c-2.5-4.6-5.2-8.3-6.9-9.4
			c-1.7-1.2,2.5-2.9,1-4.6c-1.5-1.7-3.8-1.5-6.7-2.9c-2.9-1.3-4.8-3.6-4.8-6.7c0-3.1-1.9-10.4-2.9-12.9c-1-2.5,2.1-2.1,3.1-1
			c1,1.2,1.7,2.3,3.1,1.5c1.3-0.8,3.6-0.2,4.6,1.9c1,2.1,4.2,0.2,5.8,1.2c1.5,1-3.5,2.1,1.5,11c5,8.8,1.5,3.8,1.5,9.8
			c0,6,3.1,3.3,4,2.3c1-1,3.7,1.9,6.2,5c2.5,3.1,7.3,3.3,7.3,5c0,1.7,1,5.2,4.2,5.8c3.3,0.6,3.8,4.2,6,4.6c2.1,0.4,2.5,2.7,1.3,5.2
			c-1.2,2.5,0,4.6,5.4,6.7c5.4,2.1,2.9,2.5,7.1,6.5c4.2,4,16.1,17.1,18.6,20.8c2.5,3.6,3.3,6.7,4.2,9.4c1,2.7-1.9,4-0.4,6.3
			c1.5,2.3-2.9,1.3-2.7,3.1c0.2,1.7,2.7,10.4,6.9,10.8c4.2,0.4,9,5.6,12.5,8.5c3.5,2.9,8.6,2.3,13.8,4.2c5.2,1.9,9.6,6.5,17.1,8.7
			c7.5,2.1,14.8,5.4,19.6,8.5c4.8,3.1,10.8,1.7,17.5-1c6.7-2.7,11.9,0.8,15.8,2.3c1.9,0.8,5.6,3.9,9.3,7.3c0,0,0,0,0,0
			c3.8,3.4,7.7,6.9,9.5,8.1c3.7,2.3,9.6-0.2,12.1,2.1c0.1,0.1,0.2,0.1,0.3,0.2c2.9,2.3,13.8,5.7,16.8,5.7c1.4,0,2.2-0.6,2.8-1.2
			c0.8-0.6,1.3-1,2.6,0c1.1,0.9,0.9,2.1,0.8,3.3c-0.2,1.2-0.2,2.4,1.3,3.3c3.1,1.7,7.3,8.5,10.6,10.2c1.6,0.8,2.5,2.2,3,3.5
			c0.5,1.4,0.2,2.8-0.7,3.4c-1.7,1.2-1.9,5.8,2.3,7.5c4.2,1.7,2.9-1,5-1c2.1,0,1.9,3.3,3.8,3.3c1.9,0,6.3,2.3,6.2,5.4
			c-0.2,3.1,1.5,4.4,5,4.4c0.6,0,1.3,0.1,2.1,0.2c0.6-2.1,1.5-3.7,1.2-4.8c-0.3-1-0.1-3.6,1.3-5.5
			C178.6,116.1,175.1,111.6,173.2,108.8z M225.4-209.4c5.8,0.7,9.9-3.4,12-0.9c0.1,0.1,0.2,0.3,0.3,0.5c2.8,5-7.3,8.1-16.9,8.5
			c-3,0.1-5.2,0.4-6.9,0.7c-3.9,0.6-5.1,0.9-6.2-1.8C206.2-206.3,219.3-210.2,225.4-209.4z M212-195.9c0.1,0.2,0,0.5-0.1,0.9
			c-1.5,3-13.3,8.7-19.9,12.2c-7.3,3.8-17.3,1.9-17.3-3.8c0-5.8,5.4-4.6,6.5-1.9c0.4,1,1.7,0.3,3.5-1c2.9-2.1,7.1-5.8,10.7-5.5
			c5.8,0.4,7.3,3.8,11.1,1.2C210.5-196.7,211.2-197.9,212-195.9z M184.3-230.9c5.4,1.9,13.5-2.3,16.1,4.2c2.7,6.5,8.9,11.5,3.1,11.9
			c-5,0.4-11.5-6.5-11.1-2.7c0.4,3.8-2.7,1.9-2.7,7.7c0,5.8-3.8,13.8-6.2,13.5c-0.1,0-0.1-0.1-0.2-0.1c-2.2-1,1.2-9.6-3.2-11.1
			c-4.6-1.5-10,6.5-9.2,1.5c0.8-5,7.7-9.2,3.5-15.8c-4.2-6.5-11.9-6.5-13.5-1.5c-1.5,5-6.9,2.7-8.8,6.5c-1.9,3.8-3.8,12.3-2.3,18.5
			c1.5,6.2-0.4,9.2-6.2,12.7c-5.8,3.5-8.8-5.3-6.5-16.5c1.5-7.7,5.8-15,1.9-15c-3.8,0,5-9.2,13.1-11.1c8.1-1.9,18.1-1.2,18.1-3.5
			c0-0.5,0.4-0.8,1-1C173.5-233.5,180-232.5,184.3-230.9z M133.6-262.4c5,0,17.7,1.1,18.5,7.7c0.8,6.5,8.5,0.4,9.2,6.5
			c0.7,5.2,5.7,9.3,4.9,12.1c-0.1,0.5-0.5,0.9-1,1.3c-3.2,2.2-2.3-3.5-8.1-3.5c-5.8,0-11.5,5.4-16.1,3.1c-4.6-2.3-2.3-5.4-6.5-5.4
			c-4.2,0,3.1-8.1-3.1-4.6c-6.2,3.5-15.4,11.9-19.6,8.1c-4.2-3.8-8.1,1.2-11.1-1.9c-3.1-3.1,10.8-11.5,17.3-11.1
			c1.6,0.1,3.1-0.6,4.5-1.7C126.5-255.2,129.8-262.4,133.6-262.4z M50.5-318.2c3.1,3.8,7.7,19.6,10.4,24.6c2.7,5,2.7,13.1-0.8,13.5
			c-4.2,0.5,0.4-11.1-7.3-15.4c-9-5-13.1-14.2-13.1-19.2C39.8-319.7,47.5-322,50.5-318.2z M-106.3-413.9c0.6-2.6,3.1-6.7,6.9-6.7
			c3.8,0,3.5-5-2.8-8.1c-6.3-3.1,9-5,12.5-0.2c3.5,4.9,9.8,8.4,13.3,4.9c3.5-3.5,23.5-13.3,23.5-8.7c0,4.6-14.8,7.6-20.8,12.8
			c-6,5.2-5.5,3.8-10.7,4.7c-5.2,0.9-1.1,6.1-7.3,6.6c-6.3,0.5-21.4,1.1-23.5-2.4C-115.9-412.2-106.9-411.3-106.3-413.9z
			 M-169.1-467.4c2.9-0.3,0.9-3.5,4.9-5c4-1.5-0.8-3.8,0.5-5.5c1.2-1.7,9.3,1.7,9.5-1.4c0.2-3.1-8.1-5.7-10.9-3.8
			c-2.7,1.8-9.2,6.1-16.8,2.7c-2.4-1.1,19.3-3.4,22.9-6.7c3.7-3.4,20.2-7.2,21.4-4.1c1.2,3.1-8.9,5-4,7.8c4.9,2.8,12.8,0.9,14.7-2
			c1.8-2.9,9.8-2.4,4.7,3.8c-5,6.3-6.7,7.2-11.9,6.3c-5.2-0.9-8.4,1.7-5.8,3.5c2.6,1.8,2.8,3.4-2.6,4.6c-5.4,1.2-8.9,5.3-11,4.9
			c-2.1-0.5,9.2-8.6,6.3-10.7c-2.9-2.1-10.1,3.7-10.2,6.3c-0.2,2.6-4.9,2.7-7.8,2.6C-168.2-464.3-172-467.1-169.1-467.4z M126.9,71
			c-0.1,0.1-0.1,0.2-0.2,0.3C126.8,71.1,126.9,71,126.9,71z M126.1,72.1c0,0.1-0.1,0.1-0.1,0.2C126,72.2,126.1,72.2,126.1,72.1z
			 M126.1,45.9c0.1,0,0.1,0,0.2,0C126.2,45.9,126.1,45.9,126.1,45.9z M111.7,45.9c-0.4,0-0.7,0-0.8,0
			C111,45.9,111.3,45.9,111.7,45.9z M111.7,45.9c1.4,0,3.9,0.1,6.6,0.1C115.7,46,113.1,45.9,111.7,45.9z M121.9,46c0,0-0.1,0-0.1,0
			C121.8,46,121.9,46,121.9,46z M120,46c-0.3,0-0.6,0-0.9,0C119.4,46,119.7,46,120,46z"/>
		<path fill="#DCDBDB" d="M238.5,15.1c-5.8,0-24.6-13.1-41.9-16.9c-17.3-3.8-32.4,8.6-30.8,10.8c2.3,3.1,10.8-3.8,15-6.9
			c4.2-3.1,8.1,1.5,8.5,3.5c0.4,1.9,5.8,3.1,14.6,3.5c8.8,0.4,10,7.7,18.4,9.6c8.5,1.9,0,5.4,4.2,6.9c4.2,1.5,26.5,1.2,28.1-0.8
			C256.2,22.8,244.3,15.1,238.5,15.1z"/>
		<path fill="#DCDBDB" d="M218.9,41.6c1.5,2.7,16.1,6.5,17.7,3.1C238.1,41.2,217,38.3,218.9,41.6z"/>
		<path fill="#DCDBDB" d="M317.7,42.4c3.5,5.4,13.4,2.2,14.2,0C333.5,38.5,314.2,37,317.7,42.4z"/>
		<path fill="#DCDBDB" d="M364.7,115.4c1,1,4.8-0.1,6.6-0.8c1.8-0.7,1.6-3.3-0.4-5c-2-1.7-8.3,0.9-6.4,1.8
			C366.5,112.2,363.6,114.3,364.7,115.4z"/>
	</g>
	<g clip-path="url(#SVGID_1_)">
		<path fill="#8E8E8E" stroke="#FFFFFF" stroke-miterlimit="10" d="M326.5,735.7c-4.8-0.2-14.2-9-17.1-11.3c-2.9-2.3-0.8-4.6-4.2-4
			c-3.5,0.6-1.2-2.7,0.8-3.7c1.8-0.9-0.7-4.2-3-4.7c-0.3,5.2-1.3,28.3,0.1,28.6c1.4,0.2,11.6-1.2,14.6,0.8c1.2,0.4,2.7,1.3,3.9,0
			c1.9-2.1,7.7-1,10.8-2.9C335.4,736.5,331.3,735.9,326.5,735.7z M433,432.2c-0.9-0.4-3.5-0.4-5.7-0.4c0,0.3,0,0.6,0,0.9
			c0.5,3.6-1.8,13-4.4,12.7c-2.6-0.3-4.7,3.9-6.8,3.4c-2.1-0.5-4.9,3.1-7.5,1.6c-2.6-1.6-6.2,0.5-8.3-0.8c-2.1-1.3-8.1-0.3-8.1-1.8
			c0-1.6,2.9-1,2.9-5.7c0-4.7,7.8-9.9,6.8-11.7c-1-1.8-14.3-5.7-16.1-8.1c-1.8-2.3-4.4-4.4-9.6-4.9c-5.2-0.5-4.9-3.1-9.6-6
			c-3.9-2.4-10-8.8-12-12.3c-3.2-0.3-7.7-1-8.6,0.1c-1.3,1.5-3.3,8.7-5.1,5.1c-1.8-3.6-6.2-3.6-10-4.1c-3.8-0.5-3.6-4.1-7.7,0.3
			c-1.8,1.9-4.2,3.9-6.3,5.2c-0.3,4.1-1,8.8-1.8,10.1c-1,1.8-9.6,5.7-9.9,7.8c-0.3,2.1,1,4.9-0.5,6.2c-1.6,1.3,3.6,7.8,0.8,9.4
			c-2.9,1.6,2.1,4.2,0.3,5.7c-1.8,1.6-5.2,2.3-5.2,4.2c0,1.8-0.3,6.2-2.6,7.3c-2.3,1-3.9,4.9-3.9,7.8c0,2.9-3.6,1-2.3,4.7
			c1.3,3.6,2.9,8.1,0,8.8c-2.9,0.8-2.1,6.8-3.6,6.8c-1.6,0-2.3,6.2,0,9.4c2.3,3.1,2.9,5.7,2.9,8.6c0,2.9,3.1,4.4,2.1,7.5
			c-1,3.1-0.5,6-2.3,7.3c-1.8,1.3-0.3,5.2-2.6,6.2c-2.3,1,1.8,9.4,0,10.9c-1.8,1.6-6.5,2.9-6.5,8.6c0,5.7,0.9,9,0.3,11.5
			c-0.5,2.1,2.6,1.6,2.1,4.9c-0.5,3.4-4.7,1.3-4.9,3.4c-0.3,2.1,1,6.3-0.5,6.5c-1.6,0.3-2.3,1.8-2.3,5.5c0,3.6-2.1,4.2-2.3,6
			c-0.3,1.8,1.8,3.9,1.8,6c0,2.1,1.3,9.1-0.5,9.4c-1.8,0.3-2.9,8.1-1.3,9.1c1.6,1,1.6,3.1,0.8,4.7c-0.8,1.6,3.6,3.1,1.3,5.5
			c-2.3,2.3-0.5,5.3,2.6,4.4c2.6-0.8,4.2,3.9,1.3,3.9c-2.9,0-5.7,0-3.4,1.8c2.3,1.8,4.7,4.4,1.3,5.7c-3.4,1.3-0.5,3.6-1.3,6.8
			c-0.8,3.1,2.3,6-0.3,6.8c-2.6,0.8,1,5.5-2.6,6c-3.6,0.5-1.3,3.9-3.6,5.7c-2.3,1.8,3.1,4.9,0.3,6.8c-2.9,1.8-0.8,6-3.6,6
			c-2.9,0-4.4,3.9-4.7,5.7c-0.3,1.8-2.1,5.5,0.3,8.1c2.3,2.6-0.5,4.7,1.6,5.7c2.1,1,9.1-0.5,8.1,2.6c-1,3.1-0.8,9.9,0.5,9.9
			c1.3,0,2.1,3.9,4.2,3.6c2.1-0.3,11.4-1.3,15.4-0.3c1.9,0.5,3.5,1.7,4.7,2.7c2.2-1,7.1,2.2,8.2,1.1c1.3-1.3-4.8-6.3-4.6-8.1
			c0.2-1.7-1-4.6-1-6.5c0-1.9-1-6.2,1.7-8.1c2.7-1.9,2.9-3.8,4.6-3.5c1.7,0.4,5.2-1.5,5.4-6.2c0.2-4.6,2.3-6.3,6.2-9.6
			c4.2-3.6,11.1-6.9,10.2-8.5c-1-1.5,1.5-6.5,1.5-8.5s-6.5-1.5-8.6-2.3c-2.1-0.8-9.8-6.2-6-13.3c3.8-7.1,11.9-7.9,14.2-8.1
			c2.3-0.2,0.2-3.5,2.1-4.6c1.9-1.2,2.3-3.1,2.3-6c0-3.3,0-8.5,3.5-8.8c3.5-0.4,4.4-2.3,2.3-2.9c-2.1-0.6-3.1-3.1,0.4-3.5
			c3.5-0.4,2.3,2.9,4.8,2.9c2.5,0,6.7-4.2,3.5-6.7c-3.3-2.5-4.2,1.2-6,1.5c-1.7,0.4-3.1-2.3-4.8-2.3c-1.7,0-0.6-4.8-1.3-6.5
			c-0.8-1.7-1.9-6-0.4-8.1c1.5-2.1,8.1,3.3,13.8,3.7c5.8,0.4,10-2.9,10-5c0-2.1-2.7-6,0.8-8.3c3.5-2.3,0.6-3.1-0.4-6.2
			c-1-3.1,1.5-5,3.1-3.5c1.5,1.5,12.9,0.6,22.3-1.3c9.4-1.9,16-5.4,16.5-8.1c0.6-2.7,6.5-9,7.9-11.3c1.3-2.3,0.2-5.2-3.7-5.8
			c-3.8-0.6-3.7-5-1.5-7.5c2.1-2.5-1.2-4.8-4.8-5.2c-3.7-0.4-9.4-2.9-6.2-6c1.6-1.5,2.3-1.2,3.1-0.5c0.6-1.5,1.1-3.2,0.6-3.6
			c-0.8-0.8-2.7,0.2-2.5-5.3c0.2-5.5,2.1-4.3,2.3-11.3c0.2-7,2.9-11.1,2.9-14.8c0-3.7,6.6-8,10.3-14c3.7-6,11.7-13.6,15-15.8
			c3.3-2.1,9.7-3.9,10.5-5.8C435.4,443.5,434.6,433,433,432.2z"/>
		<path fill="#8E8E8E" stroke="#FFFFFF" stroke-miterlimit="10" d="M276.2,704.9c-2.1,0.3-2.9-3.6-4.2-3.6c-1.3,0-1.6-6.8-0.5-9.9
			c1-3.1-6-1.6-8.1-2.6c-2.1-1,0.8-3.1-1.6-5.7c-2.3-2.6-0.5-6.2-0.3-8.1c0.3-1.8,1.8-5.7,4.7-5.7c2.9,0,0.8-4.2,3.6-6
			c2.9-1.8-2.6-4.9-0.3-6.8c2.3-1.8,0-5.2,3.6-5.7c3.6-0.5,0-5.2,2.6-6c2.6-0.8-0.5-3.6,0.3-6.8c0.8-3.1-2.1-5.5,1.3-6.8
			c3.4-1.3,1-3.9-1.3-5.7c-2.3-1.8,0.5-1.8,3.4-1.8c2.9,0,1.3-4.7-1.3-3.9c-3.1,0.9-4.9-2.1-2.6-4.4c2.3-2.3-2.1-3.9-1.3-5.5
			c0.8-1.6,0.8-3.6-0.8-4.7c-1.6-1-0.5-8.8,1.3-9.1c1.8-0.3,0.5-7.3,0.5-9.4c0-2.1-2.1-4.2-1.8-6c0.3-1.8,2.3-2.3,2.3-6
			c0-3.6,0.8-5.2,2.3-5.5c1.6-0.3,0.3-4.4,0.5-6.5c0.3-2.1,4.4,0,4.9-3.4c0.5-3.4-2.6-2.9-2.1-4.9c0.6-2.5-0.3-5.7-0.3-11.5
			c0-5.7,4.7-7,6.5-8.6c1.8-1.6-2.3-9.9,0-10.9c2.3-1,0.8-4.9,2.6-6.2c1.8-1.3,1.3-4.2,2.3-7.3c1-3.1-2.1-4.7-2.1-7.5
			c0-2.9-0.5-5.5-2.9-8.6c-2.3-3.1-1.6-9.4,0-9.4c1.6,0,0.8-6,3.6-6.8c2.9-0.8,1.3-5.2,0-8.8c-1.3-3.6,2.3-1.8,2.3-4.7
			c0-2.9,1.6-6.8,3.9-7.8c2.3-1,2.6-5.5,2.6-7.3c0-1.8,3.4-2.6,5.2-4.2c1.8-1.6-3.1-4.2-0.3-5.7c2.9-1.6-2.3-8.1-0.8-9.4
			c1.6-1.3,0.3-4.2,0.5-6.2c0.3-2.1,8.8-6,9.9-7.8c0.8-1.3,1.5-6,1.8-10.1c-2.7,1.7-5,2.7-5.4,1.7c-0.8-1.8,0.3-7.2-2-9.5
			c-2.3-2.3-0.8-6.9-3.1-7.9c-2.3-1-5.1-5.6-3.1-7.2c2-1.5,0-4.6,1.8-6.2c1.8-1.5-1-1.8-3.6-4.9c-2.6-3.1,1-6.9-2.1-9.2
			c-3.1-2.3-3.1-5.1-3.8-3.8c-0.8,1.3-1,5.6-3.6,6.9c-0.4,0.2-1.1,0.7-1.9,1.4c0,2.1-0.7,5.7,0.1,7.8c1.2,2.9,1.7,16.9,0.6,22.3
			c-1.2,5.4-2.3,9.8-3.5,13.1c-1.2,3.3,2.7,3.5,1.2,5c-1.5,1.5-1,5.4-1,11.5c0,6.2-3.7,16.5-3.8,19.8c-0.2,3.3-2.7,5.4-2.3,9
			c0.4,3.7-1.7,5.8-3.8,7.5c-2.1,1.7,3.5,7.3,3.3,10.4c-0.2,3.1-4.2,4.4-3.3,9.4c1.2,6.2,0,16.9,0,19c0,2.1-2.5,1.9-1.9,6
			c0.6,4-2.5,5-3.1,10.8c-0.6,5.8-5,14-6.7,18.5c-1.7,4.4-1.7,6.9-4,6.9c-2.3,0-2.9,2.5-1.2,6.3c1.7,3.8-1.2,7.1,1.2,11
			c2.3,3.8,1.5,5.2,0.4,8.8c-1.2,3.7-2.7,3.8-2.7,7.3c0,3.5-2.7,6.3-1.2,10.2c1.5,3.8,1.2,5.2-0.8,5.2c-1.9,0-2.9,3.1-3.7,9.4
			c-0.8,6.3-0.6,6.2,4,5.8c4.6-0.4,1-15.6,3.8-15.6c2.9,0,0.4-2.5,3.3-3.3c2.9-0.8,0.4,2.7,2.3,3.3c1.9,0.6,3.3,2.1,0.6,3.8
			c-2.7,1.7,0.6,5.2-0.8,7.3c-1.3,2.1-3.3,4.4-2.1,6.9c1.2,2.5-1.3,2.3-1.5,5.6c-0.2,3.3,1.7,3.5,0.4,4.2c-1.3,0.8,1.7,3.3-0.2,3.7
			c-1.9,0.4-0.8,2.9,0.4,5.2c1.2,2.3-2.5,1-4.4,2.5c-1.9,1.5,1.9,3.6,0.8,5.8c-1.2,2.1-4.2-1.2-5.6-2.3c-1.3-1.2,2.1-3.5,3.8-5.8
			c1.7-2.3-1.7-7.5-4.6-6.3c-2.9,1.2,2.9,4.4,2.9,6.9c0,2.5-4.8-0.6-4.6,2.1c0.2,2.7-3.3,1.7-5,3.7c-1.7,1.9,2.3,3.7,0.4,4.2
			c-1.9,0.6-5.2,3.3-5.4,5.2c-0.2,1.9,2.1,2.3,2.1,0.4c0-1.9,3.1-2.5,4,0c1,2.5,2.3,0,5,0.6c2.7,0.6,2.3,4.6,0.8,4.4
			c-1.5-0.2-3.1,2.5-2.7,5.4c0.4,2.9,5.8,0,8.1,0.8c2.3,0.8,1.5,4.8,0.2,3.5c-1.3-1.3-4.4-3.7-5.8-1.3c-1.3,2.3-3.5,1.2-5.2,0.4
			c-1.7-0.8-7.9,3.3-5.8,4.8c2.1,1.5,1.9,4,3.3,3.8c1.3-0.2,3.5-1.2,4.2-2.7c0.8-1.5,3.5-3.1,3.7,0.4c0.2,3.5-3.7,1.7-4.4,3.7
			c-0.8,1.9-2.3,3.5-4.6,5.2c-2.3,1.7,0,4.6,1.9,3.7c1.9-1-0.6,2.3,2.1,2.7c2.5,0.4,3.3-1.5,2.7-3.5c-0.6-1.9,1.3-6.1,3.7-4
			c2.3,2.1-1.2,4.2-1.2,6.2c0,1.9-1.3,4.4-1.3,6.5c0,2.1-2.5,1-2.3,3.3c0.2,2.3-5.4,0.8-2.9,2.3c2.5,1.5-1.5,3.6-0.2,5.2
			c1.3,1.5,2.5-2.1,4.6-1.3c2.1,0.8,1.7,1.3,4.4,0.2c2.7-1.2,4.2,2.1,1.7,2.9c-2.5,0.8-5.2,3.7-4,4c1.2,0.4,4.4-1.9,5.2,0.6
			c0.8,2.5,2.7,1.7,2.9-1c0.2-2.7,4.8-0.4,5.6,1.9c0.8,2.3-4.8,3.7-7.7,3.1c-2.9-0.6-4.4,2.7-2.5,5.2c1.9,2.5,4.2,0,6.3-2.1
			c2.1-2.1,12.5-1.5,13.3,0.8c0.8,2.3-4.8,0.4-5.4,1.7c-0.6,1.3-4.8,2.5-5.4,1c-0.6-1.5-4.6,0.6-4.8,3.1c-0.2,2.5-3.3,2.5,0.2,3.5
			c3.5,1,2.5-3.7,7.9-3.3c5.4,0.4,8.3-5,9.8-1.9c1.5,3.1-4.4,5.6-6.5,3.6c-2.1-1.9-4.6,1.4-4.4,4.2c0.2,2.9-6.2-0.8-9.2-1.2
			c-3.1-0.4-1.7,2.9,1,5.8c2.7,2.9,4.2-0.4,7.5,1.7c3.3,2.1,3.3,4.4,5.6,2.3c2.3-2.1,0-1.9-1.5-2.9c-1.5-1-0.2-4.2,3.5-2.5
			c3.7,1.7,7.9-1.5,6.7-6.1c-1.2-4.6,3.3-6.7,7.7-8.3c4.4-1.5,2.1,2.9-1.2,4.2c-3.3,1.3-3.8,2.3-1.3,5c2.5,2.7,5.8-1.7,7.9,0.4
			c2.1,2.1-3.8,1.7-4.8,3.8c-1,2.1,3.7,4.6,0.4,6.1c-3.3,1.5-1.7-6.3-3.7-7.1c-1.9-0.8-3.7,1-1.7,5.4c1.9,4.4-2.3,0.6-4.2-1.5
			c-1.9-2.1-4.6,1-2.3,3.3c2.3,2.3-4.4-0.2-4.4,3.5s2.9,0.6,6.3,1.3c3.5,0.8,1.9,5.8,4.4,7.7c2.5,1.9,0.4-6.2,3.1-6.7
			c2.7-0.6,0.2,6.2,6.2,8.1c6,1.9,0.4-1.2,3.1-3.1c2.7-1.9,6.2,5.8,9,6.5c2.9,0.8,1-3.5-1.2-5.8c-2.1-2.3,2.1-1,5,0
			c2.9,1,5.2,1.3,5.8-0.8c0.2-0.8,0.8-0.8,1.4-0.6c-3-2-13.2-0.5-14.6-0.8c-1.4-0.2-0.3-23.3-0.1-28.6c-0.2,0-0.4-0.1-0.6-0.1
			c-2.5,0-8.1,0.6-7.1-3.3c0.2-0.7,0.5-1.1,1-1.3c-1.1-1-2.7-2.2-4.7-2.7C287.6,703.6,278.3,704.6,276.2,704.9z"/>
		<path fill="#8E8E8E" stroke="#FFFFFF" stroke-miterlimit="10" d="M224.5,125c-3.1-4.6-8.6-4.2-12.1-5.8c-3.5-1.5-7.9,0.6-12.3,4.6
			c-4.4,4-10,1.7-13.8-0.4c-1.1-0.6-2.7-2.1-4.5-4c-1.4,2-1.6,4.5-1.3,5.5c0.3,1.1-0.6,2.7-1.2,4.8c3.8,0.5,8.8,2.1,11.2,5
			c2.9,3.5,4.6,1.1,6.3,4.2c1.7,3.1,5.8,0.2,6.7-1.7c1-1.9-2.1-2.7-2.5-4.8c-0.4-2.1,3.8-1.3,4.6-4.2c0.8-2.9,6.9-4.2,9.6-3.1
			c2.7,1.1,5,3.1,2.5,6c-1.9,2.1,1.9,6,5.1,9c2.2-2.3,4.8-4.9,5.8-5.7c0.6-0.4,0.9-1.5,1.2-2.7C228.4,131.1,226.6,128.2,224.5,125z"
			/>
		<path fill="#8E8E8E" stroke="#FFFFFF" stroke-miterlimit="10" d="M229.8,200.4c2.4,1.4,5.8,1,6.6,0c0.8-1,3,1.2,6.2,4.8
			c0.1,0.2,0.3,0.3,0.4,0.4c2.7-0.6,6.1-1.1,7.5-0.2c2.4,1.5,1.8,6.9,5.1,7.2c3.3,0.3,5.7,3.6,5.4,5.4c-0.3,1.8,3.6,2.7,3.3,5.4
			c-0.3,2.7,8.8,2.1,10,1.2c1.2-0.9,3.6-1.5,5.1-0.6c1.5,0.9,4.2-0.9,5.7-0.3c1.5,0.6,7.5,3,6.3,5.1c-1.2,2.1-5.4,5.4-4.5,7.2
			c0.7,1.4,3.9,2.3,5.2,4.1c0.1,0,0.3,0,0.4,0c2.3-0.5,3.3-9.2,3.3-11.8c0-2.6,1-9.2,1.8-11.8c1.5-5-5.5-8.6-5.5-14
			c0-5.5,2.8-2.4,5.9-4.7c3.1-2.3-0.2-3.2-1.7-3.6c-1.6-0.3-2.8-3.1-2.3-4.8c0.5-1.7,10.1-1,13.1-1c3,0,9.6-2.8,9.7-3.2
			c0.1-0.4,0.8-2.6-1.6-4.4c-2.3-1.8-1.5-4.4,0.3-6.5c1.8-2.1-1.1-4.2-3.4-6.7c-2.3-2.5-0.5-11.6,2.1-15.9c2.6-4.2-5.3-3.3-10.1-2.7
			c-4.9,0.6-9-1.3-12.1-5.3c-3.1-4-7.4-1.5-14.8-1.3c-7.5,0.2-6-8.2-5.6-11.4c0.3-3.2-3.8-3.6-3.8-5.7s-2.2-2.1-4.1-1.9
			c-1.9,0.2,0-2.3,1.3-4c1.3-1.7,1.2-3,1.3-6.4c0.1-3.5,5.1-6.4,7.6-9.8c0.6-0.8,1.6-1.3,2.6-1.7c0.3-0.8,0.9-1.5,2.1-1.7
			c3.8-0.8,5.8-3.3,2.1-5.4c-3.7-2.1-5.8,4-9.8,4.6c-4,0.6-4.8,3.1-7.5,4.4c-2.7,1.3-7.7,0.2-7.9,2.5c-0.2,2.5-1.7,0-4-0.6
			c-2.3-0.6-8.3,4.6-8.1,7.5c0.2,2.9,1.2,5.6-3.1,8.3c-4.2,2.7-6.7,7.7-8.6,10c-0.6,0.7-1.2,0.8-1.9,0.4c-0.3,1.3-0.6,2.3-1.2,2.7
			c-1.1,0.8-3.6,3.4-5.8,5.7c1.1,1,2.1,2,2.8,2.7c2.7,2.9,1,5.2,1.7,6.7c0.8,1.5,1.5,3.8,0,4.8c-1.5,1-0.2,11.5,1.5,13.5
			c1.7,1.9,0,3.7-1.9,7.5s-3.7,5.6-7.1,5.8c-3.5,0.2-3.3,5.6-4.4,5.6c-0.9,0-1.6,1.9-1.7,3.6c3.2,2.7,9,6,10.7,6
			C226.2,196.4,227.4,199,229.8,200.4z"/>
		<g>
			<path fill="#8E8E8E" d="M295.4,358.6c0.1-0.2,0.2-0.3,0.3-0.3c-0.2-1.6-0.2-3,0.7-3.6c1.8-1,4.6-5.1,4.6-6.9
				c0-1.8-3.3-1.8-3.3-4.1c0-2.3,3.6-6.2,2-7.4c-1.5-1.3,2.3-5.1,2.1-7.2c-0.3-2.1-1.8-11.3-0.8-12.3c1-1,3.3-1.8,2.3-4.6
				c-0.8-2.2-4.5-8.4-6-12.2c-2.9-0.4-6.3-0.3-8.4,0.4c-2.8,1-2-7.9-2-11.3c0-3.3-2.8-1.5-3.8,0.8c-1,2.3-5.1,1.3-9.2,1.3
				c-4.1,0-2.1-5.1-4.6-4.9c-2.6,0.3-4.6-0.8-4.4-3.3c0.3-2.6-1.8-4.6-3.6-7.4c-1.8-2.8-3.8-5.6-2.3-7.4c1.5-1.8-1-3.3,1.3-5.6
				c2.3-2.3,4.6-1.5,3.8-4.6c-0.8-3.1,2.6-4.9,2.8-8.2c0.3-3.3,4.1-2.3,7.7-5.1c3.6-2.8,7.4-1.3,10.5-3.8c2.9-2.4,4.9-0.3,7-0.5
				c-1.3-1.8-4.4-2.7-5.2-4.1c-0.9-1.8,3.3-5.1,4.5-7.2c1.2-2.1-4.8-4.5-6.3-5.1c-1.5-0.6-4.2,1.2-5.7,0.3c-1.5-0.9-3.9-0.3-5.1,0.6
				c-1.2,0.9-10.3,1.5-10-1.2c0.3-2.7-3.6-3.6-3.3-5.4c0.3-1.8-2.1-5.1-5.4-5.4c-3.3-0.3-2.7-5.7-5.1-7.2c-1.4-0.9-4.8-0.4-7.5,0.2
				c2.9,3.3,3.9,4.6,2,6.2c-2.5,2,0,2.4-4.8,8.8c-4.8,6.4-13,8-17,9.2c-4,1.2-5.6,8.6-7.8,13.8c-2.2,5.2-4,3.4-6.2,0.4
				c-2.2-3-4,0.6-6.6-1.8c-2.6-2.4-1.4-2.4,0-4.4c0.8-1.1-0.1-2.8-1.7-4.5c-2.9,0.6-5.8,4.5-7.2,7.6c-1.5,3.3,2.7,9.6,3.3,11.9
				c0.6,2.3-2.3,0.2-2.7,2.3c-0.4,2.1,6.3,5.2,9.4,7.5c3.1,2.3,5.8,8.8,8.6,11.9s3.1,5.8,6.2,13.3c3.1,7.5,9.2,20.2,13.5,25.6
				c4.2,5.4,6.2,9.6,5.2,11.2c-1,1.5,0.2,5.8,3.3,7.9c3.1,2.1,5.6,5.6,13.6,9.6c8.1,4,22.9,11.7,25,15.4c2.1,3.7,9,7.1,10.4,7.9
				c0.4,0.2,0.5,0.8,0.5,1.6c0.8-0.7,1.5-1.2,1.9-1.4C294.4,364.3,294.6,359.9,295.4,358.6z"/>
			<g>
				<g>
					<g>
						<g>
							<path fill="#FFFFFF" d="M296,359c0.1-0.3-0.2-0.3-0.4,0.4l0.2,0.6C295.8,359.6,295.9,359.2,296,359z"/>
							<path fill="#FFFFFF" d="M293.7,363.6c-0.2,0.9-0.9,1.9-0.2,1.6c0.2-0.5,0.3-0.8,0.5-1.1c0.1-0.3,0.2-0.6,0.2-1.1
								c0.3-0.7,0.6-1.3,0.6-1.1c0-0.3,0.4-1.2,0.3-1.6c-0.5,0.9-0.8,2.1-1.3,3.5C293.7,363.9,293.8,363.7,293.7,363.6z"/>
							<path fill="#FFFFFF" d="M237.8,324.3c-0.1,0.2-0.2,0.4-0.3,0.5C237.5,324.8,237.7,324.5,237.8,324.3z"/>
							<path fill="#FFFFFF" d="M217.1,282.3c0.1,0.3,0.2,0.5,0.2,0.5C217.2,282.5,217.1,282.2,217.1,282.3z"/>
							<path fill="#FFFFFF" d="M213.8,274.7c0.1,0.2,0.2,0.3,0.3,0.4C214,274.9,213.9,274.8,213.8,274.7z"/>
							<path fill="#FFFFFF" d="M237.8,324.3c0.2-0.5,0.2-1,0.2-1.5C237.8,322.8,238,323.6,237.8,324.3z"/>
							<path fill="#FFFFFF" d="M285.9,364.3c0.2,0.1,0.4,0.2,0.6,0.3C286.3,364.5,286.2,364.4,285.9,364.3
								C285.9,364.3,285.9,364.3,285.9,364.3z"/>
							<path fill="#FFFFFF" d="M249.6,338.7l0.3,0.2c0.1,0,0.2,0,0.3,0.1L249.6,338.7z"/>
							<path fill="#FFFFFF" d="M263.6,346.1c-0.3-0.2-0.6,0-0.7,0.1c0.2,0,0.5,0.1,0.8,0.2C263.7,346.3,263.7,346.2,263.6,346.1z"/>
							<path fill="#FFFFFF" d="M283.5,361.4l0.4,0.2C283.8,361.5,283.6,361.4,283.5,361.4z"/>
							<path fill="#FFFFFF" d="M240.8,331.7c0,0,0-0.1,0-0.2C240.7,331.6,240.7,331.6,240.8,331.7z"/>
							<path fill="#FFFFFF" d="M299,343.7C299,343.7,299,343.7,299,343.7C299,343.8,299,343.8,299,343.7z"/>
							<path fill="#FFFFFF" d="M295.3,358.6c0-0.1,0.1-0.2,0.2-0.2c0-0.1,0-0.1,0-0.2C295.4,358.3,295.4,358.5,295.3,358.6z"/>
							<path fill="#FFFFFF" d="M205.5,262.4C205.5,262.5,205.5,262.5,205.5,262.4C205.9,262.8,205.7,262.6,205.5,262.4z"/>
							<path fill="#FFFFFF" d="M251.8,210.4c-0.2-0.8,0.1-0.2,0.4,0.3c0.1,0.2,0.3,0.5,0.4,0.5c0.1,0,0-0.2-0.2-0.8
								C252.4,210.6,251.3,208.4,251.8,210.4z"/>
							<path fill="#FFFFFF" d="M285.6,364c-0.2-0.1-0.4-0.2-0.6-0.3C285.2,363.9,285.4,364,285.6,364z"/>
							<path fill="#FFFFFF" d="M252.5,210.3L252.5,210.3c0-0.1,0-0.2-0.1-0.2C252.4,210.2,252.4,210.3,252.5,210.3z"/>
							<path fill="#FFFFFF" d="M196.5,238.6c-0.1,0-0.2,0.1-0.3,0.2C196.2,238.8,196.3,238.8,196.5,238.6z"/>
							<path fill="#FFFFFF" d="M197.8,258l-0.5-0.4C197.5,257.7,197.7,257.9,197.8,258z"/>
							<path fill="#FFFFFF" d="M201.5,237.9c-0.2,0.2-0.3,0.3-0.6,0.7c0,0,0.1-0.1,0.1-0.1C201.1,238.3,201.3,238.2,201.5,237.9z"/>
							<path fill="#FFFFFF" d="M209.5,245.8c0-0.1-0.1-0.2-0.1-0.2c-0.1-0.1-0.2-0.2-0.3-0.3C209.2,245.4,209.4,245.6,209.5,245.8z"
								/>
							<path fill="#FFFFFF" d="M301.1,305c0.1,0.3,0.1,0.5,0.1,0.7C301.2,305.4,302.2,307.1,301.1,305z"/>
							<path fill="#FFFFFF" d="M286,364.1c-0.1,0-0.2,0-0.4-0.1c0.1,0.1,0.3,0.2,0.4,0.2C286,364.2,286,364.2,286,364.1z"/>
							<path fill="#FFFFFF" d="M202.9,239.7c-0.3,0.4-0.3,0.3-0.3,0.3c0,0,0,0.1,0,0.2c0,0,0-0.1,0-0.1
								C202.6,240,202.6,240.1,202.9,239.7z"/>
							<path fill="#FFFFFF" d="M268.7,248.6c-0.1,0.1-0.2,0.1-0.2,0.2C268.6,248.8,268.6,248.7,268.7,248.6z"/>
							<path fill="#FFFFFF" d="M206.6,241.4c0.5,0,1.2,0.1,1.8,0.4c0.1,0,0.3,0.1,0.4,0.1C208.1,241.5,207.2,241.3,206.6,241.4z"/>
							<path fill="#FFFFFF" d="M301.1,305.7L301.1,305.7L301.1,305.7z"/>
							<path fill="#FFFFFF" d="M302.3,318.5c0-0.4,0-0.7,0-0.7c0,0-0.1,0-0.1-0.1c-0.1-0.1-0.3-0.1-0.3-0.2c0-0.1,0.1-0.1,0.1-0.1
								c0,0,0.2-0.1,0.3-0.2c0.1-0.1,0.2-0.1,0.3-0.2c0.2-0.1,0.2-0.1,0.3-0.1c0.1,0,0.1,0.2,0.5,0c0.7-0.6,1.3-1.5,1.4-2.5
								c0.1-1-0.1-1.7-0.3-2.4c0-0.1,0-0.4,0.1-0.1c-0.4-0.8-1-1.9-1.6-3c-0.6-1.1-1.2-2.2-1.8-3c0-0.1,0-0.2,0-0.3
								c0,0.4-0.2,0.5-0.3,0.5c-0.4-0.8-1-1.4-0.9-1.8c0.3,0.5,0.4,0.5,0.5,0.7l-0.5-0.8c-0.1-0.9,0.7,1.1,0.9,1
								c-0.5-0.8-1-1.7-1.5-2.5c-0.2-0.4-0.5-0.8-0.7-1.2c-0.1-0.2-0.2-0.4-0.3-0.6c0-0.1-0.1-0.2-0.1-0.3c0-0.1-0.1-0.2-0.1-0.3
								c0-0.2,0.2,0.1,0.3,0.4c0.1,0.2,0.3,0.6,0.4,0.8c0.3,0.6,0.5,0.9,0.2,0c0.3,0.7,0.6,1.4,0.9,2c-0.3-1.8,0.6,1.2,0.4-0.4
								c-0.6-1.3-1-2-1.3-2.7l-0.2-0.4c-0.1-0.2-0.2-0.3-0.2-0.5c-0.1-0.2-0.2-0.4-0.2-0.5l0-0.1c0,0-0.1,0-0.1,0l-0.2,0
								c-0.1,0-0.2,0-0.3,0c-0.4,0-0.8-0.1-1.3-0.2c-0.3,0-0.7-0.1-1-0.1c-0.7,0.2,0.2,0.3-0.5,0.4c-2,0.1-2.8,0-3.6-0.1
								c-0.4,0-0.7-0.1-1-0.1c-0.2,0-0.4,0-0.6,0.1c-0.1,0-0.2,0.1-0.4,0.1c-0.1,0-0.1,0-0.2,0.1c-0.1,0,0,0-0.1,0
								c0,0-0.1,0.1-0.1,0.1c-0.1,0.1-0.3,0.2-0.5,0.1c-0.1-0.1-0.2-0.1-0.3-0.4c-0.1-0.3-0.2-0.7-0.2-1.2c0.2,0.2,0.3,0.4,0.5,0.6
								c-0.2-1.2-0.3-1.7-0.5-2c-0.1-0.4-0.2-0.8-0.1-2.3c0.1,0.5,0.2,2.2,0.2,1.8c0.3-1.9-0.2-1.3-0.2-2.8l0.3-0.3
								c0-0.8,0-1.5,0-2.3c0-0.4,0-0.7-0.1-1.5c-0.1-0.6-0.2-1.3-0.6-1.7c-0.3-0.5-0.9-0.8-1.5-0.8c-0.6,0-1.2,0.3-1.7,0.7
								c-0.3,0.2-0.5,0.4-0.7,0.6c-0.2,0.2-0.3,0.4-0.5,0.6c-0.3,0.4-0.5,0.8-0.7,1.3c0-0.2,0.2-0.9-0.3-0.1
								c-0.1,0.3-0.2,0.4-0.5,0.6c-0.3,0.2-0.7,0.3-1.2,0.3c-1,0.1-2.1,0-3.2-0.1c-1.1-0.1-2.3-0.2-3.4-0.3c-0.4,0-0.7-0.1-0.8-0.3
								c-0.1-0.1-0.3-0.3-0.4-0.7c-0.2-0.3-0.4-0.7-0.7-1.2c-0.1-0.4-0.1-0.8,0.1-0.3c0-0.1-0.1-0.2-0.1-0.3c0-0.1-0.1-0.2-0.1-0.3
								c-0.1-0.2-0.1-0.3-0.2-0.4c-0.1-0.1-0.1-0.1-0.1,0c0,0.2,0,0.5-0.3,0c-0.4-0.6-0.8-0.8-1-0.9c-0.2-0.1,0-0.2,0.4,0
								c-0.2-0.1-0.5-0.2-0.7-0.2c-0.3,0-0.6-0.1-0.9,0c-0.2,0-0.2,0-0.3,0c-0.1,0-0.2,0-0.2,0c-0.2,0-0.3,0-0.5,0
								c-0.3,0-0.7,0-1-0.1c-0.6-0.2-1.1-0.5-1.2-1.1c-0.1-0.3-0.1-0.6-0.1-1.1c0-0.5,0-1.1-0.1-1.5c-0.2-1-0.6-1.8-0.9-2.4
								c0.1,0.2,0.3,0.3,0.4,0.5c-0.5-1.2-1.1-1.6-1.5-2.1c-0.5-0.4-0.9-0.9-1.4-1.8l0.3,0.3c-0.6-1-1.4-2.2-2-3.2
								c-0.6-1-1.2-2.2-1.2-3.1c0-0.2,0-0.4,0.1-0.6c0-0.1,0.1-0.2,0.1-0.2l0.3-0.3c0.3-0.3,0.4-0.7,0.5-1.1c0.1-0.4,0.1-0.8,0-1.1
								c-0.1-0.7-0.2-1.2-0.1-1.5c0-0.4,0.2-0.6,0.4-0.8c-0.1-0.3,0.7-1.1,1.6-1.6c0.5-0.3,1-0.5,1.4-0.8c0.2-0.1,0.4-0.3,0.5-0.4
								c0.1-0.2,0.2-0.3,0.2-0.4c0.4-0.4,0.6-0.8,0.7-1.1c0.1-0.4,0.1-0.7,0.1-0.9c0-0.3,0-0.4,0-0.6l0-0.3l0-0.2
								c0-0.2,0-0.5,0.1-0.8c0.1-0.4,0.3-0.8,0.8-1.6c0.5-0.9,0.5-1.5,1.1-2.8l0.3,0.1c0.2-0.7,0.3-1.4,0.3-2.1
								c0.1-0.2,0.2-0.4,0.3-0.5l0.2-0.3c0.1-0.2,0.1-0.4,0.2-0.6c-0.1,0.1-0.2,0.2-0.3,0.2c-0.1,0.1-0.1,0.1-0.2,0.1
								c0.1-0.3,0.2-0.6,0.6-0.8c0.3-0.2,0.8-0.4,1.2-0.5c0.9-0.2,1.6-0.3,1.7-0.3c0.7-0.3,1.5-0.7,2.2-1.1c0.4-0.2,0.7-0.5,1.1-0.7
								l0.9-0.7c0,0.1-0.1,0.2-0.3,0.4c-0.2,0.2-0.5,0.5-0.8,0.7c1.1-1,1.1-0.9,1.2-0.8c0.1,0,0.2,0,0.9-0.5c-0.3,0,0-0.2,0.1-0.3
								c0.5-0.1,1.2-0.4,2.2-0.5c0.9-0.2,2-0.3,3-0.6l-0.3,0.3c0.9-0.2,1.9-0.4,2.9-0.9c0.5-0.2,1-0.5,1.4-0.9
								c0.4-0.3,0.6-0.5,0.9-0.7c0.1-0.1,0.3-0.2,0.4-0.2l0.1,0l0.1,0l0,0l0.1,0c0.3,0,0.5,0,0.8,0c0.1,0,0.2,0,0.4,0l0.5,0.1
								c0.3,0.1,0.7,0.2,1,0.2c0.3,0,0.6,0.1,0.9,0.1l0.6,0c1.6,0,1.8,0.1,3.1,0.1c-1,0-1.4-0.2-1.6-0.3c-0.2-0.1-0.2-0.2,0.4-0.2
								l0,0c0.3,0,0.5,0,0.6,0c-0.2-0.2-0.3-0.3-0.3-0.2c0,0,0.1,0.2,0,0.2c0,0-0.1,0.1-0.1,0c0,0-0.1-0.1-0.1-0.1
								c0,0-0.1-0.1-0.1-0.2c-0.1-0.1-0.2-0.2-0.3-0.3c-0.5-0.6-0.5-0.7-0.3-0.7c0.2,0.1,0.6,0.4,1,0.8c-0.5-0.6-1-1-1.5-1.5
								c0.1-0.1,0.5,0.3,0.8,0.4c-0.5-0.3-0.6-0.9-1.7-1.7c-0.5-0.4-1.2-0.9-1.8-1.2c-0.3-0.2-0.7-0.4-0.9-0.5
								c-0.1-0.1-0.3-0.2-0.4-0.2c-0.1,0-0.1,0-0.1-0.1l0-0.1c-0.1-0.1-0.1-0.1-0.1-0.1c0,0,0,0,0-0.1c0,0.1,0-0.2,0.2-0.4
								c0.2-0.5,0.6-1,1-1.5c0.8-1,1.6-1.8,2.6-3.2c0-0.1,0-0.1,0-0.3c0.1-0.1,0.1-0.3,0.3-0.6c0.1-0.2,0.1-0.4,0.2-0.6
								c0-0.1,0.1-0.2,0.1-0.3c0-0.1,0-0.2,0-0.3c0-0.2,0-0.4-0.1-0.6c-0.1-0.2-0.2-0.4-0.3-0.5c-0.5-0.8-0.9-1.2-1.5-1.6
								c-0.5-0.4-1.1-0.8-1.6-1.1c-0.6-0.4-1.2-0.7-1.8-1c-0.3-0.1-0.6-0.3-0.9-0.4l-0.5-0.2l-0.2-0.1c-0.1,0-0.3-0.1-0.4-0.1
								c-0.8-0.1-1.1,0-1.3,0c-0.2,0.1-0.2,0.1-0.2,0.1c0,0.1,0.1,0.1-0.3,0.3c-0.1-0.1-0.9,0-1.4,0.1c-0.5,0.1-0.8,0.1-0.2-0.1
								c-0.7,0.2-1.3,0.3-1.6,0.2c-0.1,0-0.1,0-0.2,0c0,0,0,0-0.1,0l-0.3-0.1c-0.4-0.2-0.7-0.3-1.1-0.4c-0.7-0.1-1.5-0.1-2.3,0.1
								c-0.8,0.2-1.7,0.5-2.6,1.2c0,0,0,0.1-0.1,0.1c0.1,0,0.1,0,0.2,0c0.3-0.2,0.6-0.3,0.5-0.1c-0.1,0.1-0.2,0.2-0.4,0.2
								c-0.1,0.1-0.4,0.1-0.6,0.2c-0.2,0-0.4,0-0.3-0.1l0.2-0.1c-1.3,0.4-3.1,0.5-4.7,0.4c-0.8-0.1-1.6-0.2-2.3-0.5
								c-0.2-0.1-0.3-0.1-0.4-0.2c-0.1-0.1-0.1-0.1-0.1-0.1c-0.1-0.1-0.1-0.2,0-0.3c0-0.1,0-0.3,0-0.4c0-0.2,0-0.3-0.1-0.5
								c0-0.3-0.2-0.6-0.3-0.9c-0.3-0.5-0.6-1-0.9-1.3c-0.6-0.7-1.3-1.1-1.7-1.4l0.1,0.1c-0.3-0.2-0.5-0.4-0.6-0.5
								c-0.1-0.1-0.1-0.2-0.2-0.3c0.1-0.8-0.2-1.5-0.5-2.1c-0.4-1-0.3-0.7,0-0.4c0.2,0.3,0.5,0.7,0.2,0c-0.7-1.1-1.5-1.9-2.3-2.5
								c-0.8-0.6-1.7-1.1-2.5-1.3c-0.2-0.1-0.4-0.1-0.7-0.2l-0.3-0.1c-0.1,0-0.3,0-0.3-0.1c-0.2,0-0.4-0.1-0.6-0.2
								c-0.3-0.2-0.7-0.7-1.1-1.4c-0.1-0.6-0.2-1.5-0.6-2.6c-0.2-0.6-0.4-1.2-0.9-1.8c-0.1-0.2-0.3-0.3-0.4-0.5
								c-0.1-0.2-0.3-0.3-0.5-0.5c-0.3-0.3-0.9-0.6-1.3-0.7c-0.9-0.2-1.6-0.2-2.3-0.2c-0.7,0-1.4,0.1-2,0.2c-0.2,0-0.3,0-0.5,0.1
								c-0.3,0-0.5,0.1-0.8,0.1c-0.5,0.1-1,0.2-1.5,0.3c-1,0.2-1.9,0.3-2.8,0.5l0.7,0c-0.2,0.1-0.4,0.1-0.5,0.2
								c0.9,0.9,0.8,1.1,1.5,2c0-0.2-1-1.4-0.2-0.6c0.6,0.7,1.2,1.3,1.7,2l0.2,0.2l0.1,0.1l0.2,0.3c0.1,0.2,0.3,0.4,0.3,0.5
								c0.2,0.3,0.3,0.7,0.3,0.8c0,0.1,0,0.1-0.1,0.2c-0.1,0.1-0.2,0.2-0.3,0.3l-0.6,0.5c-0.2,0.2-0.5,0.4-0.7,0.7
								c-0.5,0.5-0.7,1.3-0.8,1.8c-0.2,1-0.5,1.8-1,2.6c-0.9,1.6-2.2,3.3-3.4,4.6c-1.3,1.3-2.9,2.4-4.5,3.4c-1.2,0.7-1.5,1-1.9,1.4
								c-0.4,0.4-0.9,0.8-2.6,1.2l0.8-0.7c-1.3,0.6-2.7,1.1-4.1,1.5l-2.2,0.6c-0.4,0.1-0.7,0.2-1.2,0.4c-0.5,0.2-0.9,0.5-1.3,0.7
								c-1.5,1.2-2.3,2.6-3,4.1c-0.7,1.4-1.2,2.9-1.6,4.3c0.1-0.4,0-0.4,0.2-0.9c-0.7,1.1-1.6,4.3-1.4,4.4c-0.3,0.8-0.2,0.1-0.5,0.6
								c-0.6,1.1-0.9,2.9-1.4,3.1c-0.1,0.1,0.1-0.3,0.2-0.4c-0.1,0.1-0.2,0.4-0.4,0.6l-0.1,0.2l-0.1,0.1c-0.1,0.1-0.1,0.1-0.1,0.1
								c-0.1,0.1-0.2,0-0.2,0.2c-0.1-0.1-0.4-0.2-0.7-0.6c-0.3-0.3-0.6-0.6-0.9-1c-0.2-0.2-0.3-0.4-0.4-0.5l-0.2-0.3l-0.3-0.3
								c-0.4-0.4-0.9-0.9-1.5-1.2c-0.4-0.1-1-0.2-1.6-0.1c-0.5,0.1-1,0.2-1.4,0.2c-0.8,0.1-1.1,0-1.3,0.2c0.1-0.1-0.1-0.2-0.2-0.4
								c-0.1-0.1-0.2-0.2-0.3-0.3c-0.1-0.1-0.3-0.3-0.5-0.5c-0.2-0.2-0.4-0.4-0.5-0.5c-0.1-0.1-0.1-0.1-0.2-0.2
								c-0.1-0.1,0-0.3,0-0.4c0,0.1,0,0.1,0.1,0.1c0,0,0.1,0,0.1,0c0,0,0.1-0.1,0.2-0.1c0.2-0.2,0.5-0.4,0.3-0.1
								c0.2-0.3,0.5-0.6,0.7-0.9c0.3-0.4,0.4-0.9,0.5-1.3c0-0.4,0-0.7-0.1-1c-0.1-0.5-0.3-0.6-0.3-0.5c-0.1-0.8-0.4-1.4-0.8-1.9
								c-0.1-0.1-0.2-0.3-0.3-0.4l-0.4-0.5c-0.3-0.4-0.7-0.7-1-1c-0.7,0.2-1.4,0.4-2,0.7c-0.3,0.2-0.4,0.3-0.6,0.4
								c-0.2,0.1-0.3,0.2-0.5,0.4c-0.6,0.5-1.2,0.9-1.7,1.1c-0.9,1-1.6,2-2.2,3c-0.3,0.5-0.6,1-0.9,1.6l-0.4,0.8
								c-0.1,0.3-0.2,0.5-0.4,0.9c-0.5,1.4-0.2,2.7,0.1,3.8c0.3,1.1,0.7,2.2,1.2,3.2c-0.2,0-0.7-1.1-1.1-2.3
								c-0.4-1.1-0.5-2.4-0.7-2.3c0.1,1.2,0.5,2.1,0.8,2.9c0.3,0.8,0.7,1.6,1.1,2.3c0.4,0.7,0.7,1.4,1.1,2.2c0.4,0.7,0.8,1.7,0.9,2
								c0,0.2-0.1,0.1-0.1,0c-0.1-0.1-0.2-0.3-0.3-0.3c0.1,0.2,0.2,0.3,0.2,0.5c0,0.2-0.2,0.3-0.3,0.3l-0.1,0l-0.1,0l-0.2,0
								c-0.3,0-0.8,0.2-1.1,0.5c-0.4,0.3-0.6,0.8-0.7,1.1c-0.1,0.2-0.1,0.4-0.1,0.7c0,0.2,0.1,0.5,0.1,0.6c0.3,0.7,0.7,1.2,1.1,1.6
								c0.4,0.4,0.8,0.7,1.2,1c0.8,0.6,1.6,1.1,2.4,1.5c0,0-0.4-0.1-0.7-0.3c0.6,0.4,1.4,0.9,1.4,0.7l-0.6-0.3
								c-0.8-0.8,2.7,0.9,2.9,0.9c-0.7-0.1,0.1,0.4,0.7,0.9c0.6,0.5,1.2,0.9,0.2,0.7c0.4,0.2,0.9,0.4,0.9,0.3c0.5,0.4,0.6,0.6,0,0.3
								c0.9,0.6,1.2,0.9,1.5,1.1c0.3,0.2,0.5,0.4,1.2,1.3c-0.1,0-0.4-0.3-0.6-0.4c0.8,0.7,1.6,1.6,2.6,3.3c-0.1-0.1-0.1,0.2-0.4-0.3
								c0.9,1.4,1.7,2.5,2.6,3.7c0.4,0.6,0.9,1.2,1.4,1.8c0.5,0.6,1.1,1.3,1.6,2c-1-0.5,0.6,1,0.4,1.4c0.4,0.5,0.7,1,1,1.6
								c0-0.3-0.1-0.5-0.2-0.8c0.7,1.5,1.5,2.8,1.9,4.2l-0.6-1.1l1.2,3l-0.5-1.8c0.8,1.6,0.4-0.3,1.1,1.8c-0.2-0.4,0.6,1.6,0.7,2.5
								l0,0c0.4,0.7,0.9,1.5,1.3,2.7c0,0.4-0.5-0.1-0.5,0.1c0.6,0.7,1.7,3.7,2.4,4.5c-0.2-0.3-0.4-0.2-0.4-0.1l0.5,0.5
								c0.3,0.8,0.3,0.9,0.1,0.8c1,2.2,0.1-0.9,1.1,1.8c-0.1-0.2-0.1-0.1-0.3-0.5c1.1,2.6,2.6,4.9,3.7,7.3c0,0.9-1.1-2-1-1.1
								c1.8,3.3,4.1,6.7,6.2,9.8l-0.4-0.6c0.7,0.1,1.4,2.4,2.7,3.7c-0.3-0.3-0.6-0.3-0.5-0.2c0.7,1,1.4,2,2.2,3.2
								c0.7,1.2,1.7,2.5,2.1,4.2c-0.1-0.1-0.1-0.3-0.2-0.4c0.1,0.3,0.1,0.7,0.1,1.1l0,0.3l-0.1,0.2c0,0.1-0.1,0.1-0.1,0.2l-0.2,0.4
								c-0.4,1.2-0.2,2.3,0,3.2c0.3,0.5,0.6,1.4,0.6,0.7c0.3,1.3,0.9,2.4,1.8,3.3c0.2,0.2,0.5,0.4,0.7,0.6c0.2,0.2,0.5,0.4,0.8,0.5
								c0.5,0.3,0.9,0.6,1.4,1c1.8,1.4,3.5,2.8,5.1,4.3c-0.4-0.3-1.1-0.7-0.7-0.4c1,0.7,2.1,1.4,3.2,2c-0.1-0.4-0.3-0.4-0.9-1
								c0.5,0.2,1.4,0.6,2.2,1.1c-1.5-0.7-0.2,0.3,0.4,0.8c-0.1-0.1,0.2-0.1,0.2-0.2c1.5,1.3,0.5-0.2,2.7,1.3l-0.2,0
								c0.9,0.4,1.8,0.7,2.7,1.2c0.3,0.4-1-0.4-1.2-0.2c1.3,0.7,2.9,0.9,4,1.7c-0.6-0.2-1.4-0.6-2-0.9c1.2,1,1.4,1,2.3,1.5l-0.1-0.1
								l2.2,1.3l-0.5-0.4c2,0.3,3.4,1.7,5.9,2.5c-2.4-0.8-0.5,0-0.8,0.2c0.5,0.4,1.3,1,1,0.9c1.2,0.4,1.6,1.2,3.2,1.7
								c0,0.1,1.1,0.7,0.7,0.7c1.4,0.7-0.2-0.3,0-0.4c1.1,0.5,2.2,1.3,3.4,2.2c1.2,0.9,2.5,1.9,3.7,3c0.2,0.3,0.4,0.4,0.6,0.7
								c0.2,0.3,0.4,0.5,0.6,0.7c0.4,0.4,0.7,0.7,1.1,0.9c0.7,0.5,1.4,1,2.6,1.8c0.3,0.3,0.1,0.3-0.2,0.2c-0.3-0.1-0.7-0.4-0.7-0.4
								c1.1,1.1,2.1,1.7,3.4,2.3c-0.3-0.1-0.1,0.1,0.2,0.5c1,0.6,0.8,0.1,2.1,1c-0.3,0-0.7,0-1.2-0.2c0.4,0.2,0.8,0.4,1.2,0.6
								l0.6,0.3l0.6,0.2c0.3,0.1,0.5,0.4,0.5,0.7c-0.1,0.3-0.3-0.6-0.7-0.5c0.2,0,0.3,0.2,0.3,0.4c0,0.1,0,0.2,0.1,0.3
								c0,0.1,0,0.3,0,0.5l0.1,1.4l1-0.9c0.4-0.4,0.8-0.8,1.2-1.1c0.3-0.3,0.6-0.5,0.7-0.7c-0.2,0.1-0.3,0.1-0.5,0.2
								c-0.1,0.1-0.3,0.1-0.4,0.2c0.4-0.3,0.4,0,0.1,0.3c-0.4,0.5-0.8,0.7-1.1,0.9l-1.1,0.6l0.2-1c0.1-0.3,0.1-0.5,0.2-0.5
								c0,0.2,0,0.3,0.1,0.5l0.1,0.7l0.5-0.4l0.3-0.3c-0.1,0-0.3,0.1-0.4,0.2l-0.2,0.1l0-0.2c0-0.2,0.1-0.5,0-0.9
								c0-0.3-0.2-0.7-0.6-0.8c-1-0.5-2.3-1-3.2-1.5l0.9,0.1c-0.6-0.2-1.3-0.5-1.9-0.8c-0.3-0.3-0.4-0.7,0.4-0.2
								c-1.1-0.9-1.1-0.6-2-1.4c-0.1-0.1,0-0.1,0.1,0c-0.4-0.2-0.8-0.5-1.2-0.7c0.3,0.1,0-0.4,0.6,0.2c-1.8-1.6-3.2-2.4-3.4-3.4
								l0.1,0.2c-0.2-0.3-0.5-0.6-0.6-0.8c-0.2-0.2-0.3-0.3-0.4-0.4c-0.2-0.1-0.2-0.1-0.3-0.1c-0.1,0.1,0,0.2-1.1-0.5
								c-0.3-0.6-0.6-1.1-0.9-1.7l-0.5,0c-0.3-0.2-0.8-0.7-0.7-0.7c-1.2-0.6,0.1,0.2-0.6,0c-1.3-1.2-4.1-2.5-4.1-3.1
								c-0.6-0.1,1.3,1-0.3,0.2c-0.2-0.7-1.9-1-3.1-2c0.6,0,1.8,0.9,0.5-0.1c-1-0.1-2.6-1.6-3.8-2.1c-0.2,0.3-2.6-1.2-4.7-2.1
								c0.2-0.1-3.7-2.1-5.4-3.1l0.1,0c-0.5,0.2-2.4-0.9-3.7-1.7c0.2-0.2,0.4-0.1,1.2,0.3c-0.4-0.2-0.8-0.5-1.2-0.7
								c-0.4-0.1-0.8-0.3-1.6-0.8l0.5,0c-1.6-1-3.3-2-5.1-3.8c-0.3,0.1,1,1.8-1.1,0.2c0-0.2,0.1-0.4,0.7,0c-0.2-0.1-0.7-0.4-1-0.8
								l1,0.5c-0.8-0.8-0.6-0.2-1.3-0.8c0.1-0.1-0.4-0.5-0.2-0.6c0.2,0.1,0.6,0.6,0.9,0.7c-0.7-0.7-1.7-1.6-2-1.9
								c0,0.1-0.2,0.2-0.7-0.2c-0.7-0.6-0.7-0.8-0.7-0.9c0-0.1,0.1-0.1-0.2-0.6c-0.4-0.3-0.8-1.3-1.1-1.2c-0.2-0.5-0.1-0.6-0.1-0.8
								c-0.2-0.4-0.5-1.5-0.5-2.2c0-0.4,0.1-0.7,0.1-0.8c0-0.1,0-0.1,0-0.1c0,0-0.1,0-0.2,0.1c0,0.1-0.1,0.1-0.1,0.2
								c0,0,0-0.1,0-0.1c0,0,0,0,0,0l0,0l0.2-0.6c0-0.2,0.1-0.5,0.1-0.7c0-0.5-0.1-0.9-0.2-1.3c-0.2-0.9-0.5-1.7-0.9-2.5
								c-0.7-1.6-1.6-3.1-2.6-4.4l0.1-0.1c-0.6-0.8-1.3-1.6-1.9-2.4c-0.6-0.8-1.2-1.5-1.7-2c-0.3-0.5-0.6-1.2-0.3-1.1
								c-0.8-1.2-1-1.3-2-3.2c0.9,1.2-0.1-0.5,0.9,1.3c-0.9-1.7-1-2.2-2.2-3.9c0.6,0.5-0.4-1.4-0.9-2.2l0.5,1.3
								c-0.5-0.9-0.9-1.7-1.3-2.5l0.5,0.3c-1.4-3.7-3.8-6.1-4.4-9.1c-0.6-0.9,0.7,2,0.1,1.3c-0.7-1.7-1-3.6-1.2-4.1
								c-0.8-2.4-1.3-2-2.2-4.4c0,0.4-0.2,0.8-1-1c-0.6-1.7-0.3-2.3,0.2-1.2c0.2,0.4,0.2,0.6,0.2,0.6c0.2,0.5,0.6,1.2,0.4,0.5
								l-0.2-0.2c-0.2-0.9-1.1-3.3-0.7-2.8c-0.6-1.3-0.4-0.5-0.1,0.5c-0.7-2.3-1.3-3.5-2.7-5.7c0.2,0.4,0.3,0.8,0.1,0.4
								c-0.5-0.8-0.9-1.2-1.2-1.5c-0.2-0.2-0.4-0.3-0.5-0.4c-0.2-0.1-0.4-0.1-1.1-1.1c-0.6-1.2,0.6,0.2-0.8-1.7
								c-0.7-1.3,0.1-0.4,0.5,0c-1.4-1.7-2-3.6-2.7-4.7l0.7,0.9c-0.4-0.6-0.7-1.1-1.1-1.6l0.2,0.7c-0.3-0.6-0.7-1.1-0.6-1.1
								c-0.5-0.5,0,0.7-1-0.4c-0.2-0.4-0.7-1-1.1-1.4c-0.4-0.5-0.9-0.9-0.9-1.1c1.1,1.1,1,1,1,0.8c0-0.2-0.1-0.4,0.8,0.6
								c-0.3-0.4-0.8-0.8-1.3-1.4c-0.1-0.1,0.1,0,0.3,0.2c-1.1-1.2-1.5-1.2-1.8-1.4c-0.4-0.1-0.7-0.2-1.9-0.9c0.4,0-0.4-0.6-0.8-0.8
								c1,0.6,0.3,0.5-0.7,0.1c-1.5-1.1-1.7-0.9-2.5-1.5l0.9,0.6c-0.4,0-1.2-0.5-2.2-1.2c0-0.2,1,0.6,0.6,0.3
								c-0.6-0.3-1.2-0.8-1.7-1.4c-0.2-0.3-0.4-0.7-0.4-0.8c0,0,0-0.1,0-0.1c0,0,0-0.1,0-0.2c0-0.1,0-0.1,0.1-0.2
								c0.1,0,0.3,0.1,0.3,0.1c0,0,0,0.1,0.1,0.1c0,0,0.1,0,0.1,0c0.1,0,0.2,0,0.4,0c0.9-0.1,1.4-0.4,1.8-0.8
								c0.3-0.5,0.3-0.9,0.4-1.4c0-0.2-0.1-0.5-0.1-0.8c-0.1-0.3-0.2-0.5-0.3-0.8c-0.1-0.2-0.1-0.3-0.1-0.4c0-0.1-0.1-0.2-0.1-0.3
								c-0.1-0.2-0.2-0.4-0.4-0.7c0.1,0.7,0.2,0.8-0.7-0.6c0.3,0.6,0.6,1.1,0.9,1.7c0.3,0.6,0.8,1.8,0.6,2.6c0.1-0.3,0-0.6-0.1-0.9
								c-0.1-0.3-0.2-0.6-0.3-0.9c-0.3-0.6-0.5-0.9-0.7-1.3c0.1,0.3,0.3,0.6,0.4,0.8c0.2,0.4,0.3,0.7,0.4,1.1
								c0.2,0.7,0.1,1.4-0.4,1.7c0.3-0.3,0.3-0.6,0.3-0.8c0-0.2,0-0.3,0-0.3c0-0.1-0.1,0.1-0.2,0.4c0.4-0.8-0.2-2.1-0.6-2.7
								c-0.4-0.7-0.8-1.4-1.1-2.3l0.6-0.2c-0.4-1.3-1-2.3-1.4-3.5c-0.2-0.6-0.4-1.2-0.5-1.8c-0.1-0.6-0.1-1.4,0.2-1.9
								c-0.1,0.1-0.1,0.2-0.2,0.4l-0.1,0.4c0-0.1-0.1-0.3,0-0.5c0-0.2,0.1-0.4,0.2-0.7c0.3-0.5,0.6-1.1,0.9-1.6
								c0.1,0.2,0.5-0.4,0.9-0.7c-0.1,0,0.3-0.5,0.6-1.1c0.4-0.5,0.8-1.1,0.8-1.3c0.4-0.3,0.8-0.6,1.2-0.8c0.5-0.4,1-0.7,1.3-0.9
								c0.2-0.1,0.4-0.3,0.6-0.4c0.2,0.1,0.4,0.2,0.6,0.4c0.3,0.3,0.6,0.7,0.8,1.3c-0.2-0.3-0.3-0.2-0.4-0.1c-0.1,0-0.2-0.1-0.7-0.7
								c0.5,0.7,0.7,1.3,0.8,1.2c0,0.3,0.2,0.7,0.1,1.1c-0.3,0.4-0.6,0.9-0.9,1.1c-0.1,0.2-0.2,0.4-0.3,0.7
								c-0.1,0.3-0.3,0.6-0.2,1.3c0,0.1-0.1,0-0.1,0c0,0,0.2,0.5,0.5,0.8c0.3,0.3,0.4,0.4,0.2-0.1c0.2,0.4,0.4,0.7,0.7,1
								c0.3,0.3,0.6,0.7,1,1c0.4,0.3,1,0.5,1.6,0.5c0.6,0,1.1-0.1,1.6-0.2c0.9-0.2,1.6-0.3,2.2,0.3c0.5,0.5,0.9,1.2,1.2,1.8
								c0.3,0.4,0.7,0.8,1.2,1.2c0.4,0.4,1,0.8,1.8,0.9c0.8,0.1,1.5-0.4,1.9-0.8c0.4-0.4,0.7-0.9,0.9-1.3c0,0.1,0.1,0.1-0.1,0.4
								c0.8-1.1,0.7-1.6,0.8-2c0-0.5,0.1-0.9,0.7-2.2c0.8-1.3-0.4,1.5,0.1,0.7c0.8-0.1,1.1-3.3,2.1-4.9l-0.1,0.4
								c0.4-0.6,0.6-1.5,1-2.4c0.3-0.9,0.7-1.9,1.4-2.8c0,0,0,0.1,0.1,0.1c0.3-0.7,0.9-1.6,2-2.1c1.1-0.5,2.4-0.8,3.5-1.2
								c-0.6,0.4-1,0.4-0.5,0.5c1-0.3-0.4-0.3,1.6-1c0.7-0.1,2.1-0.4,2.4-0.3c-0.6,0.2-1.2,0.4-1.9,0.7c1.1,0,2.4-0.8,3.4-1.2
								l-0.1,0.2c1.4-0.6,2-1.1,2.7-1.6c0.6-0.5,1.3-1,2.7-1.9l-0.3,0.1c0.6-0.7,0.9-0.9,1.2-1.1c0.3-0.2,0.7-0.4,1.2-1.1l0.7-0.1
								c0.8-1,2.3-3.4,3.2-5.4c-0.3,1.2-1.5,3.4-2.4,4.7c0.8-0.9,2.3-3.3,2.4-3.9c-0.2,0.4-0.4,1-0.7,1.4c0.5-1.4,1.4-3.1,1.8-5.4
								c0.2,0.2,0.3-0.2,0.6-0.5c0.1-0.2,0.3-0.4,0.5-0.6c0.1-0.1,0.3-0.2,0.4-0.3c0.2-0.1,0.4-0.3,0.6-0.5c0.4-0.4,0.8-1,0.8-1.7
								c0-0.7-0.2-1.2-0.4-1.7c-0.2-0.4-0.4-0.8-0.6-1.1c-0.1-0.1-0.2-0.3-0.2-0.4c0-0.1,0-0.1,0-0.2c-0.2-0.2-0.4-0.4-0.7-0.6
								c0.2-0.1,0.6-0.1,0.9-0.2c0.3,0,0.6-0.1,0.9-0.1c0.4,0,0.8,0,1.2,0c0.8,0,1.6,0.1,1.9,0.3c0.4,0.3,0.8,0.9,1.1,1.7
								c0-0.8,0.1-0.5,0.3-0.1c0.2,0.4,0.4,1.1,0.7,0.9c0.4,1,0.5,1.4,0.5,1.5c0.2,0.6,0.4,1.1,0.7,1.7c0.4,0.6,0.9,1.1,1.7,1.4
								c0.5,0.2,0.1,0.2-0.3,0c-0.5-0.1-1-0.5-1-0.4c0.7,0.6,1.3,0.7,1.6,0.8c0.2,0,0.3,0.1,0.4,0.1c0.1,0,0.1,0.1,0.1,0.1
								c0.1,0.1,0.1,0.2,0.7,0.4c-0.2-0.3,0.7-0.2,1.6,0.6c-0.4-0.4-0.8-0.7-1.2-1c0.7,0.2,1.1,0.4,1.4,0.7c0.3,0.3,0.5,0.5,0.7,0.8
								c0.2,0.3,0.3,0.5,0.5,0.9c0.2,0.3,0.4,0.8,0.6,1.2c-0.1-0.2-0.2-0.4-0.4-0.6c0.2,0.2,0.3,0.7,0.3,0.9c0,0.2,0,0.5,0,0.8
								c0.1,0.3,0.1,0.5,0.2,0.8c0.2,0.5,0.6,0.9,0.8,1.1c0.5,0.5,1,0.9,1.4,1.2c0.8,0.7,1.1,1.1,1.3,1.5c0,0.1,0,0,0,0.1
								c-0.1,0.3-0.1,0.6-0.2,0c0-0.1,0-0.1,0-0.2c0,0.1,0,0,0,0.2c-0.1,0.8,0.2,1.7,0.9,2.2c0.8,0.6,1.3,0.7,1.9,0.8
								c1.1,0.2,2.2,0.3,3.2,0.2c1,0,2-0.1,3-0.3c0.5-0.1,0.9-0.2,1.4-0.3c0.5-0.1,0.9-0.2,1.5-0.6c0.3-0.2,0.5-0.3,0.8-0.4
								c-0.1,0.1-0.1,0.2-0.2,0.2c0.5-0.3,0.9-0.7,1.7-0.6c0,0.1-0.2,0.2,0,0.2c0.2,0,0.6-0.1,1-0.1c0.2,0,0.4,0.1,0.6,0.2
								c0.1,0.1,0.4,0.2,0.6,0.3c0.2,0.1,0.4,0.1,0.6,0.1c-0.2,0-0.4,0-0.7-0.1c-0.1,0-0.2-0.1-0.4-0.1c-0.1,0-0.3-0.1-0.3-0.1
								l0.2,0.1l0.3,0.1c0.2,0.1,0.4,0.1,0.6,0.2c0.4,0.1,0.7,0.1,1,0.1c0.6,0,1.1-0.2,1.5-0.3c0.8-0.2,1.5-0.5,2-0.6
								c0.1,0,0.2,0,0.3,0c0.1,0,0.1,0,0.3,0c0.3,0.1,0.7,0.2,1,0.3c0.7,0.2,1.4,0.5,2.1,0.9c-0.1,0.2,0.5,0.7,1.2,1.3
								c0.3,0.3,0.7,0.6,0.8,0.9c0.1,0.2,0,0.1,0.1,0.2c0,0,0,0.1,0,0.1l-0.1,0c0,0,0,0,0,0.1l0,0c0,0,0,0.1-0.1,0.1l-0.2,0.3
								c-0.1,0.2-0.3,0.4-0.4,0.6c-0.3,0.4-0.6,0.8-0.9,1.1c-0.6,0.8-1.2,1.5-1.8,2.4c-0.3,0.5-0.5,0.9-0.7,1.5
								c-0.1,0.1-0.1,0.3-0.1,0.5c0,0.2-0.1,0.4,0,0.6c0,0.4,0.1,0.8,0.3,1.1c0.2,0.3,0.5,0.7,0.7,0.8l0.2,0.2l0.1,0
								c0,0,0.1,0.1,0.1,0.1c0.2,0.1,0.4,0.2,0.6,0.3c0,0.1,0.1,0.2,0.2,0.3c0,0.1,0.1,0.1,0.1,0.2c0,0,0,0.1,0,0.1c0,0,0,0,0,0
								l-0.1,0c0,0-0.1,0-0.1,0c-0.5-0.1-0.8-0.3-1.3-0.2c-0.5,0.1-1,0.4-1.4,0.6c-0.2,0.1-0.4,0.3-0.6,0.4l-0.3,0.2l-0.2,0.1
								c-0.5,0.4-1.1,0.6-1.6,0.8c0.5-0.1,0.1,0.4-0.6,0.6c-0.9,0.1-2.7,0.8-2.6,0.4l0.4-0.1c-0.4-0.1-1.2-0.1-2.1,0.1
								c-0.9,0.2-1.9,0.6-2.7,1.1l0,0.6c-0.3,0.1-0.5,0.3-0.8,0.4c-0.2,0.1-0.5,0.3-0.7,0.4c-0.5,0.2-1,0.5-1.5,0.7
								c-1.1,0.5-2.3,0.8-3.7,1.4c-0.7,0.3-1.4,0.9-1.8,1.7c-0.1,0.2-0.2,0.4-0.2,0.6c-0.1,0.2-0.1,0.4-0.1,0.6
								c0,0.3-0.1,0.6-0.1,0.8c-0.1,0.8-0.6,1.5-1,1.9c-0.3,0.9-1.1,2-1.5,3.1l-0.2-0.2c-0.4,0.8-0.6,1.6-0.5,2.5
								c0,0.2,0,0.4,0.1,0.6l0.1,0.5c0.1,0.2,0.1,0.4,0.1,0.6c0,0.1,0,0.2,0,0.2c0,0.1,0,0.1-0.2,0.2c-0.4,0.3-1.1,0.6-2,1.2
								c0.2-0.2,0.4-0.4,0.6-0.6c-1,0.6-1.5,1.2-1.8,1.9c-0.3,0.7-0.7,1.4-0.9,2.5c-0.2,0.2-0.3,0.5-0.4,0.7c0,0.6,0.2,1,0.2,1.4
								c0,0.4,0,0.6-0.1,0.7c0,0.1-0.1,0.2-0.2,0.3l-0.2,0.3c-0.1,0.1-0.2,0.3-0.3,0.4c-0.3,0.6-0.4,1.3-0.4,1.9
								c0.1,1.2,0.5,2.1,1,2.9c0.5,0.8,1,1.5,1.5,2.2c-0.1,0-0.2,0-0.6-0.5c0.2,0.4,0.5,0.9,0.9,1.4c0.3,0.6,0.8,1.2,1.1,1.8
								c0.8,1.1,1.4,1.8,1.4,1.4c-0.2,0.1,0.4,0.8,0.8,1.7c0.2,0.4,0.4,0.9,0.5,1.3c0,0.2,0.1,0.4,0.1,0.7c0,0.3,0,0.7,0.1,1
								c-0.1-0.1-0.2-0.2-0.3-0.4c0.2,1,0.6,1.5,1,2c0.4,0.4,1.1,1,2.3,1.2c0.6,0.1,0.5,0.3-0.3,0.1c0.7,0.2,1.1,0.2,1.4,0.2
								c0.3,0,0.6-0.1,0.9-0.1c0.2,0,0.5-0.1,0.7,0.3c-0.1-0.1-0.3-0.1-0.5-0.1c0.2,0.1,0.3,0.2,0.4,0.3c0.1,0.1,0.1,0.2,0.2,0.3
								c0.1,0.2,0.2,0.4,0.5,0.9c0.2,0.5,0.4,1.5,1,2.2c0.3,0.4,0.7,0.6,1,0.8c0.3,0.1,0.5,0.3,0.6,0.3c0.2,0,0.6-0.1,1-0.1
								c0.4-0.1,0.9-0.1,1.4,0c0.1,0.1-0.2,0.1-0.4,0.2c1.5,0.2,2.6,0.2,3.6,0.1c1-0.1,1.9-0.1,3.1-0.2c0.1,0.1,0.2,0.1,0.5,0
								c-1.4,0.5-2.5,0.4-3.3,0.4c-0.8,0-1.2-0.1-1.1-0.1c0,0.3,2,0.4,0.4,0.7c0.8-0.1,1.9-0.1,3.2-0.5c0.6-0.2,1.3-0.4,1.9-1
								c0.3-0.3,0.5-0.6,0.7-0.9c0.1-0.1,0.1-0.2,0.2-0.4c0.1-0.1,0.1-0.2,0.2-0.3c0.1-0.1,0.1-0.1,0.2-0.1l-0.1,0.2
								c0.2-0.3,0.4-0.6,0.5-0.8c0.2-0.2,0.3-0.2,0.5-0.3c0,0.1,0.2,0.1,0.3,0.2c0.1,0.1,0.1,0.3,0.1,0.4c0.1,0,0.1,0,0.2,0
								c0,0.1,0.1,0.2,0.1,0.3c0,0.2,0.1,0.1,0.2-0.3c0,0.1,0-0.1-0.1-0.4c0-0.1,0-0.1-0.1-0.2l0,0c0-0.1-0.1-0.3-0.3-0.4
								c-0.2-0.1-0.4,0-0.6,0.1c0.1-0.2,0.3-0.4,0.6-0.4c0.3,0,0.4,0.3,0.4,0.7c0.2,0.2,0.4,0.5,0.5,0.9c-0.4,1.3-0.7,3.8-0.9,4.2
								c0.1,1.3,0.1,2.8,0.4,4.3c0.1,0.4,0.2,0.7,0.3,1.1c0.1,0.2,0.2,0.4,0.3,0.6c0.1,0.2,0.2,0.4,0.4,0.6c0.3,0.4,0.7,0.6,1.1,0.7
								c0.4,0,0.8-0.1,1.2-0.2c0.2-0.1,0.3-0.2,0.5-0.2c0.1-0.1,0.3-0.1,0.4-0.2c0.8-0.2,0.9,0,1.2,0c-0.5,0.1-1,0.2-1.2,0.3
								c0.7-0.2,1.9-0.4,3-0.4c1-0.1,1.9-0.1,2.2-0.3c1,0.2,0.7,0.2,0.5,0.3c-0.1,0-0.2,0,0,0.1c0.1,0,0.2,0,0.4,0
								c0.1,0,0.3,0,0.5,0c-0.1,0-0.2,0.1-0.2,0.1c0.2,0.1,0.3,0.1,0.3,0.3l0.1,0.2l0.2,0.4c0.3,0.6,0.5,1.2,0.8,1.7
								c0.6,1.1,1.2,2.1,1.9,3.1c0.6,1,1.3,2,1.9,3.2c0.3,0.6,0.6,1.2,0.9,1.8c0.3,0.6,0.5,1.3,0.4,2c0-0.3,0-0.5,0.1-0.6
								c0.1,0.7,0,1.3-0.4,1.9c-0.2,0.3-0.5,0.5-0.8,0.7l-0.5,0.4c-0.2,0.1-0.4,0.3-0.6,0.5c-0.4,0.3-0.5,0.9-0.5,1.3
								c0,0.4-0.1,0.8-0.1,1.1c0,0.7,0.1,1.5,0.1,2.2c0.1,1.4,0.3,2.9,0.5,4.3c0.1,0.7,0.2,1.4,0.3,2.1l0.1,1l0.1,0.5
								c0,0.2,0,0.3,0,0.5c0,0.5-0.3,1.1-0.6,1.7c-0.3,0.6-0.7,1.2-1.1,1.8c-0.5,0.9-0.7,1.5-0.8,2.1c0,0.1,0,0.3,0,0.4
								c0,0.2,0.1,0.3,0.1,0.5c0,0.2,0.1,0.3,0.2,0.5c0.1,0.1,0.3,0.3,0.4,0.4c0,0.2,0,0.2-0.1,0.3c0.1,0.1,0.2,0.3,0.2,0.6
								c0,0.3-0.1,0.6-0.1,1c-0.5,1.4-1.3,2.4-2,3.7c-0.2,0.3-0.3,0.7-0.4,1.2c-0.1,0.4,0,1,0.2,1.5c0.5,1,1.5,1.5,2.3,1.8l-0.3-0.4
								c0.3,0.2,0.7,0.4,1,0.7c0.3,0.2,0.5,0.6,0.4,0.9c-0.1,0.7-0.4,1.3-0.5,1.2c0,0.1,0,0.5-0.3,0.9l-0.2,0c-0.4,1-1,1.9-1.6,2.8
								c-0.8,0.8-0.9,0.7-1,0.7c-0.1,0-0.1-0.1-0.3,0c-0.2,0.1-0.4,0.3-0.8,0.5c-0.2,0.1-0.6,0.4-0.9,0.9c-0.4,0.7-0.4,1.5-0.3,2.1
								c0.1,0.6,0.2,1.2,0.4,1.5l0.4-0.7c-0.5,0.3-0.5,0.5-0.5,0.6c0,0.1,0,0.1,0.1,0c0.1-0.1,0.2-0.3,0.5-0.4l-0.3,0.5
								c0-0.5,0-1.1,0.1-1.2c0,0.4,0.1,0.8,0.2,1.1l0.1-0.1c-0.1,0-0.1,0.1-0.2,0.1c0,0.2,0.1,0.4,0.2,0.5c0.1,0.1,0.1,0.1,0.2,0.1
								c0,0,0.1,0,0.1,0c0.1,0.1-0.1-0.1-0.2-0.2c-0.1-0.1-0.1-0.2-0.1-0.2l0.8-0.4c0.1-0.3,0.1-0.9,0.2-1.6c0-0.3,0-0.5,0-0.7
								c0-0.1,0.1-0.3,0.2-0.4l0.1-0.1c0.3-0.1,0.6-0.2,0.8-0.3c-0.2,0.2-0.5,0.4-0.8,0.6c-0.1,0.1-0.2,0.1-0.2,0.2
								c0.1-0.1,0.2-0.1,0.3-0.2c0.6-0.4,0.9-0.8,1.2-1.2c0.2-0.1,0.5-0.2,0.9-0.6c0.4-0.7,0.7-1.4,1-2.1c0.3-0.1-0.3,1.1,0.7-0.2
								c0.4-1-0.9,0.7-0.1-0.9c0.4-0.4,0.5-0.6,0.7-0.8c0.1-0.2,0.3-0.4,0.4-1.1c0.2-0.2,0.2,0.2,0,0.7c0.1-0.3,0.2-0.7,0.3-1.1
								c0.1-0.5,0.1-1.1-0.1-1.6c-0.2-0.5-0.6-0.9-0.9-1.1c-0.3-0.2-0.5-0.3-0.7-0.3c-0.4-0.4-1.2-0.8-1.4-1.2
								c-0.2-0.3-0.1-0.7,0.1-0.6c0-0.1-0.1-0.4,0-0.9c0.1-0.5,0.3-1.1,0.5-1.5c-0.2,0.9,0.2,0.1,0.8-0.9c0.3-0.5,0.5-1.1,0.8-1.5
								c0.2-0.4,0.4-0.8,0.5-0.6c0-0.2,0-0.5,0-0.9c0-0.2,0-0.4-0.1-0.7c-0.1-0.2-0.2-0.5-0.3-0.8c-0.1-0.1-0.2-0.2-0.3-0.4
								l-0.2-0.2l0,0l0,0l0,0c0.1-0.1-0.1,0.1-0.1,0.1l0,0l0,0l0,0c0,0,0,0.1-0.1,0.1c0,0,0.1-0.1,0.1-0.1c0.1,0,0.1,0,0.1-0.1
								c0-0.1,0-0.2,0-0.3c0.2-1,1.1-2.3,1.5-3.5c0,0.2-0.1,0.4-0.2,0.6c0.3-0.6,0.6-1.1,0.8-1.5c0.2-0.4,0.4-0.8,0.4-1.6
								c-0.2-0.3-0.4-0.7-0.6-1.4c-0.2-0.7-0.4-1.5-0.6-2c0.2-1.7,0.6,0.9,0.9,0.4c-0.3,0.1-0.7-2.8-0.9-2.2c0.1-1.3,0-1.1,0.2-1.8
								c-0.5-0.2-0.2-1.1-0.6-2.1c0.1-0.9,0.2-1,0.3-1.1c0.1-0.1,0.1-0.3,0.1-1.1c0-0.1,0.1-0.1,0.1-0.1c0,0,0,0,0.1,0
								c0,0,0.1,0,0.1,0.1C302.3,318.2,302.3,318.5,302.3,318.5z M282.5,289.6L282.5,289.6c0.2-0.4,0.4-0.8,0.5-1
								C282.9,288.8,282.7,289.1,282.5,289.6z M279.6,290.7c0.5,0,1,0,1.6-0.2c0.1,0.1,0.1,0.2-0.3,0.3
								C281.1,290.7,280.2,290.8,279.6,290.7z M285.6,289c-0.2,0-0.2-0.1-0.2-0.1c0.1,0,0.2-0.1,0.3,0c0,0,0,0,0,0
								C285.7,288.9,285.7,289,285.6,289z"/>
							<path fill="#FFFFFF" d="M286.1,289c0,0,0,0.1,0,0.1c0-0.1,0-0.2,0-0.2c0,0-0.1,0-0.1-0.1C286.1,288.9,286.1,289,286.1,289z"
								/>
							<path fill="#FFFFFF" d="M237.5,324.9L237.5,324.9C237.5,324.9,237.4,324.9,237.5,324.9C237.4,324.9,237.4,324.9,237.5,324.9z
								"/>
							<path fill="#FFFFFF" d="M267.5,252.3L267.5,252.3c-0.1,0.1-0.1,0.2-0.2,0.4C267.4,252.6,267.5,252.5,267.5,252.3z"/>
							<path fill="#FFFFFF" d="M250.8,340.9c0,0,0.1,0.1,0.2,0.2C251,341.1,250.9,341,250.8,340.9z"/>
							<path fill="#FFFFFF" d="M259.3,345.4l1.2,0.7C260,345.8,259.6,345.6,259.3,345.4z"/>
							<path fill="#FFFFFF" d="M265.8,349c0.1,0,0.1,0,0.2,0c0,0,0,0,0,0L265.8,349z"/>
							<path fill="#FFFFFF" d="M197.2,259.8c-0.1-0.1-0.2-0.1-0.3-0.2C196.4,259.3,196.8,259.6,197.2,259.8z"/>
							<path fill="#FFFFFF" d="M217.6,286.6c-0.2-0.3-0.4-0.7-0.5-1C217.2,286.2,217.4,286.7,217.6,286.6z"/>
							<path fill="#FFFFFF" d="M203,239.6C203,239.6,203,239.6,203,239.6c-0.1,0.1-0.1,0.1-0.2,0.2L203,239.6z"/>
							<path fill="#FFFFFF" d="M216.5,284.1c0.2,0.6,0.4,1.1,0.6,1.5C216.9,285.1,216.7,284.5,216.5,284.1z"/>
							<path fill="#FFFFFF" d="M291.5,366.8l0.3-0.2c0,0,0,0,0-0.1L291.5,366.8z"/>
							<path fill="#FFFFFF" d="M291.7,366.6l0.3-0.2C291.9,366.5,291.8,366.5,291.7,366.6z"/>
							<path fill="#FFFFFF" d="M292.7,365.9c-0.3,0.2-0.6,0.4-0.7,0.5C292.1,366.3,292.6,366,292.7,365.9z"/>
							<path fill="#FFFFFF" d="M283.2,362.4l-0.2,0C283.1,362.5,283.2,362.5,283.2,362.4z"/>
							<path fill="#FFFFFF" d="M280.8,360.6c0.5,0.5,1.3,1.4,2.2,1.9l0.1,0C282.6,362.3,281.4,360.9,280.8,360.6z"/>
							<path fill="#FFFFFF" d="M272.3,351.4c0.7,0.5,1.4,0.9,2.1,1.4c-0.3-0.3-0.7-0.8,0.3-0.2C272.2,350.7,275.1,353.2,272.3,351.4
								z"/>
							<path fill="#FFFFFF" d="M265.7,347.4c1.2,0.6,0.1-0.1,0.2-0.2C265.1,346.9,264.9,346.8,265.7,347.4z"/>
							<path fill="#FFFFFF" d="M229.9,309.3l0.3,0C229.7,308.4,230.1,309.3,229.9,309.3z"/>
							<polygon fill="#FFFFFF" points="223.6,300.6 224,301.6 224.4,301.9 							"/>
							<polygon fill="#FFFFFF" points="222.5,294.1 222.8,294.5 222,293 							"/>
							<path fill="#FFFFFF" d="M207.9,244.2c0-0.1,0-0.3,0-0.4c-0.2-0.1-0.4-0.1-0.4,0C207.5,243.9,207.6,244,207.9,244.2z"/>
							<path fill="#FFFFFF" d="M236.7,225.1c0.5-0.1,1.5-0.8,1.9-1.4C237.9,224.3,237,224.7,236.7,225.1z"/>
							<path fill="#FFFFFF" d="M273.1,244.2c0.2-0.1,0.4-0.3,0.5-0.5c-0.3,0.3-0.7,0.5-1.1,0.8C272.7,244.4,272.9,244.3,273.1,244.2
								z"/>
						</g>
					</g>
				</g>
			</g>
		</g>
		<path fill="#8E8E8E" stroke="#FFFFFF" stroke-miterlimit="10" d="M273.9,103.4c-2.5,3.4-7.5,6.3-7.6,9.8c-0.1,3.5,0,4.8-1.3,6.4
			c-1.3,1.6-3.2,4.2-1.3,4c1.9-0.2,4.1-0.2,4.1,1.9s4.2,2.5,3.8,5.7c-0.3,3.2-1.8,11.6,5.6,11.4c7.5-0.2,11.7-2.7,14.8,1.3
			c3.1,4,7.3,5.9,12.1,5.3c4.9-0.6,12.7-1.6,10.1,2.7c-2.6,4.2-4.3,13.3-2.1,15.9c2.3,2.5,5.2,4.6,3.4,6.7c-1.8,2.1-2.7,4.7-0.3,6.5
			c2.3,1.8,1.7,4,1.6,4.4c0,0.1-0.5,0.4-1.2,0.7c3.5,3.4,4.7,7.2,6.6,8.7c2.6,2.1,3.4,3.1,5.2,2.1c1.8-1,3.1-1.8,4.7-0.8
			c1.6,1,3.6-1,6-3.1c2.3-2.1,4.9-0.3,5.7-2.9c0.8-2.6,2.1-4.2,4.9-4.7c2.9-0.5,2.9-3.6,1-3.6c-1.8,0-4.4,2.3-4.4-1
			s-2.3-2.6-2.3-5.5c0-2.9-0.3-4.7-3.4-6.5c-3.1-1.8,4.2-2.6,5.7-1c1.6,1.6,7,0.3,7.5,2.6c0.5,2.3,3.4,3.1,3.4,0.3
			c0-2.9,3.4-3.9,6-3.4c2.6,0.5,8.3-3.4,10.7-4.2c1.2-0.4,1.7-1.9,2.3-3.1c-1.7-2.3-4.4-6-5.7-7c-1.9-1.6,1.2-2.5,0.9-4.7
			c-0.3-2.2,0-3.7,4.1-4c4-0.3,3.4-3.4,1.2-4.7c-2.2-1.2,0.9-4.7,3.1-5.9c0.9-0.5,2.1-2,3.2-4.2c-4.1-1.6-10.1-1.4-12.6-1.3
			c-3.3,0.2,2.1-3.7,2.3-7.1c0.2-3.5-9.2-4-12.9-4.8c-3.7-0.8-2.7-4.6,1.2-4.8c3.8-0.2-2.1-2.9-7.3-2.1c-5.2,0.8-12.5,3.7-16.7,6
			c-4.2,2.3-11.5-6.7-16.3-4.8c-4.8,1.9-11.5,1.9-11.3-1.9c0.2-3.8-1.9-7.1-6.7-6.7c-4.8,0.4-3.7-4.8-7.3-4.8c-3.7,0,0,4.4-2.5,5.6
			c-2.5,1.2-11.1,3.3-11.7,6.7c-0.6,3.5,4.6,9.2,2.9,12.7c-1.7,3.5-7.5,0.6-9.2-3.1c-1.7-3.7,5-9.2,3.8-11.3c-0.8-1.5-1.8-4.2-1.1-6
			C275.5,102.1,274.6,102.6,273.9,103.4z"/>
		<path fill="#8E8E8E" stroke="#FFFFFF" stroke-miterlimit="10" d="M242.7,205.2c-3.2-3.6-5.4-5.8-6.2-4.8c-0.8,1-4.2,1.4-6.6,0
			c-2.4-1.4-3.6-4-5.4-4c-1.7,0-7.5-3.3-10.7-6c0,0.4,0,0.8,0,1.2c0.2,1.7-2.7,2.9-6,3.1c-3.3,0.2-2.9,3.8-2.9,6.3
			c0,2.5-2.7,2.5-3.8,5.2c-1.2,2.7,0.4,3.3-2.3,4.6c-2.7,1.3-3.5,3.7-1.9,6c1.5,2.3-0.2,4.4-0.6,5.8c-0.4,1.4,2.3,1.9,5,4.4
			c2.7,2.5,3.1-1,4.2,1c1.2,1.9-0.8,5.4-3.8,5.4c-0.2,0-0.5,0.1-0.7,0.1c1.6,1.7,2.4,3.4,1.7,4.5c-1.4,2-2.6,2,0,4.4
			c2.6,2.4,4.4-1.2,6.6,1.8c2.2,3,4,4.8,6.2-0.4c2.2-5.2,3.8-12.6,7.8-13.8c4-1.2,12.2-2.8,17-9.2c4.8-6.4,2.3-6.8,4.8-8.8
			C247.1,210.2,245.9,208.8,242.7,205.2z M105.9,202.7c-3.8,5.8,3.8,11.4,5.4,8.8C113.2,208.5,109.7,196.9,105.9,202.7z"/>
	</g>
</g>
</svg>
